<?xml version="1.0" encoding="UTF-8"?>
<svg version="1.1" xmlns="http://www.w3.org/2000/svg" width="1280" height="800" viewBox="500 120 290 290" fill="none">
<path d="M0 0 C0.7027002 0.22171875 1.40540039 0.4434375 2.12939453 0.671875 C18.49971345 6.00589319 32.68958525 14.16737015 46 25 C46.99 25.66 47.98 26.32 49 27 C49.680625 26.38253906 50.36125 25.76507813 51.0625 25.12890625 C59.10437987 18.10295535 67.52341508 12.88272921 77 8 C77.91136719 7.51789063 78.82273437 7.03578125 79.76171875 6.5390625 C96.02919251 -1.47975502 115.07319064 -5.53384331 133.0625 -6.8125 C133.75303467 -6.86575439 134.44356934 -6.91900879 135.1550293 -6.97387695 C139.81769792 -7.22537606 143.61796324 -6.5919759 148 -5 C151.0103245 -1.9896755 150.97819673 0.22903621 151.09765625 4.453125 C151.08025391 6.33257812 151.08025391 6.33257812 151.0625 8.25 C151.05347656 9.51328125 151.04445313 10.7765625 151.03515625 12.078125 C151.01775391 13.52445313 151.01775391 13.52445313 151 15 C151.85231201 14.97905273 152.70462402 14.95810547 153.58276367 14.93652344 C156.76029433 14.86814756 159.93744871 14.81810262 163.11547852 14.78027344 C164.48800023 14.7602201 165.86043717 14.73296972 167.23266602 14.69824219 C169.21072044 14.64945448 171.18941119 14.62911124 173.16796875 14.609375 C174.35672607 14.58842773 175.5454834 14.56748047 176.77026367 14.54589844 C180.73426364 15.10323761 182.27756788 16.08857309 185 19 C186.84664481 23.45685937 187.25265445 27.25801922 187.26069641 32.05908203 C187.26452196 32.74601198 187.26834751 33.43294193 187.27228898 34.14068794 C187.28256244 36.42980855 187.27863772 38.71867567 187.2746582 41.0078125 C187.27900776 42.65411612 187.28419172 44.30041771 187.29014587 45.94671631 C187.30351943 50.40945434 187.30411649 54.8721076 187.30158257 59.33486176 C187.30051197 63.06259656 187.3053984 66.79031428 187.310188 70.51804543 C187.32127701 79.31217353 187.32172367 88.10625891 187.31567383 96.90039062 C187.3096306 105.96973936 187.32195529 115.03893309 187.3432439 124.10825539 C187.36085929 131.8994985 187.36686144 139.69069228 187.36360615 147.48195457 C187.36179341 152.13337801 187.3644288 156.78469081 187.37832069 161.43609619 C187.39089378 165.80936988 187.38895989 170.18240173 187.37590981 174.55567169 C187.37354352 176.15926444 187.37628058 177.76287419 187.38453293 179.36644745 C187.39499786 181.55821791 187.38690267 183.74917647 187.3742218 185.94091797 C187.37447341 187.77926712 187.37447341 187.77926712 187.37473011 189.65475464 C186.85092803 194.33077727 185.44379086 197.74593718 181.86787415 200.85194397 C177.88933324 202.44461772 174.36238716 202.40842091 170.11401367 202.36889648 C169.22880539 202.37266296 168.34359711 202.37642944 167.43156433 202.38031006 C165.51366928 202.38673445 163.59574239 202.38642008 161.67784691 202.38012505 C158.6379869 202.37100379 155.59874228 202.38125145 152.55891418 202.39674377 C143.91778511 202.43681008 135.27670456 202.43804902 126.63549805 202.43579102 C121.3452146 202.43573981 116.05526253 202.45496007 110.76506996 202.48512459 C107.77815211 202.49592139 104.79187447 202.48383498 101.80497742 202.47129822 C99.96136858 202.48020708 98.11776488 202.49028301 96.27416992 202.50170898 C95.45051941 202.49196548 94.6268689 202.48222198 93.77825928 202.47218323 C85.80100089 202.57040078 80.23259591 205.86482409 73.9375 210.5625 C63.42384835 218.09298362 52.6300333 218.97653376 40 218 C30.7546764 216.45726293 23.56810941 211.43278609 16.0546875 206.14453125 C11.32716342 202.82559171 8.04672068 202.84385373 2.40698242 202.82641602 C1.51739334 202.819729 0.62780426 202.81304199 -0.28874207 202.80615234 C-2.22470023 202.79208231 -4.16067519 202.78019451 -6.09665871 202.77020454 C-9.16050411 202.75382084 -12.22422549 202.73058334 -15.28800964 202.70530701 C-24.00061887 202.63446352 -32.71327926 202.57443059 -41.42602539 202.52319336 C-46.75168432 202.49139317 -52.07720181 202.45011246 -57.4027462 202.40299797 C-59.43329001 202.38698136 -61.46386643 202.37465822 -63.49445534 202.36609077 C-66.33604909 202.35393052 -69.17731079 202.32977671 -72.01879883 202.30297852 C-73.27752304 202.3020948 -73.27752304 202.3020948 -74.56167603 202.30119324 C-79.61762966 202.23804412 -83.69237 201.89555321 -87.75 198.5625 C-90.52183085 195.09771144 -90.13036799 191.42020949 -90.14044189 187.18106079 C-90.14341302 186.48373789 -90.14638414 185.78641499 -90.1494453 185.0679611 C-90.15813337 182.72579661 -90.15964062 180.38368324 -90.16113281 178.04150391 C-90.16576087 176.36446524 -90.17078551 174.68742762 -90.17617798 173.01039124 C-90.18930418 168.45046163 -90.19574723 163.89054676 -90.20018864 159.33060122 C-90.20311867 156.48271136 -90.20722333 153.63482554 -90.21169281 150.78693771 C-90.22536759 141.87928397 -90.23503465 132.97163944 -90.2388947 124.06397593 C-90.24337721 113.77606594 -90.26093411 103.48828869 -90.2898953 93.20041907 C-90.31149727 85.25129887 -90.32159817 77.30221605 -90.32293582 69.3530668 C-90.32398481 64.60381175 -90.32991259 59.85468149 -90.34775543 55.10545731 C-90.36421073 50.63867341 -90.36640403 46.17210846 -90.35761642 41.7053051 C-90.35684472 40.06581347 -90.36120637 38.42631018 -90.37107468 36.78684807 C-90.38375724 34.54860574 -90.37793812 32.3111432 -90.36749268 30.07290649 C-90.36895924 28.82039911 -90.3704258 27.56789173 -90.3719368 26.27742958 C-89.96700795 22.7092809 -89.13158842 20.85684976 -87 18 C-83.14513331 14.95873158 -80.2275629 14.64071832 -75.38671875 14.70703125 C-74.13955078 14.71669922 -72.89238281 14.72636719 -71.60742188 14.73632812 C-70.31384766 14.76146484 -69.02027344 14.78660156 -67.6875 14.8125 C-65.71813477 14.83280273 -65.71813477 14.83280273 -63.70898438 14.85351562 C-60.47223923 14.88882557 -57.23632895 14.9381472 -54 15 C-53.96261719 13.73542969 -53.92523437 12.47085938 -53.88671875 11.16796875 C-53.82106167 9.5077827 -53.75461424 7.84762778 -53.6875 6.1875 C-53.66494141 5.35412109 -53.64238281 4.52074219 -53.61914062 3.66210938 C-53.58369141 2.85966797 -53.54824219 2.05722656 -53.51171875 1.23046875 C-53.47244263 0.12288208 -53.47244263 0.12288208 -53.43237305 -1.00708008 C-52.87871337 -3.55904167 -52.07100804 -4.43519259 -50 -6 C-36.09845007 -11.23874337 -13.70679886 -4.32751378 0 0 Z " fill="#816449" transform="translate(595,140)"/>
<path d="M0 0 C10.14675447 0 10.14675447 0 14.3125 0.8828125 C15.69477783 1.17430176 15.69477783 1.17430176 17.10498047 1.47167969 C18.06033691 1.68727539 19.01569336 1.90287109 20 2.125 C21.00820801 2.3509082 22.01641602 2.57681641 23.05517578 2.80957031 C38.4604619 6.38287323 52.45438422 11.79676994 66 20 C66.69448242 20.41378906 67.38896484 20.82757813 68.10449219 21.25390625 C72.67466716 24.06698336 76.57472967 26.83657063 80 31 C81.10784249 35.89255325 80.90344574 40.08841008 80 45 C78.7625 45.20625 77.525 45.4125 76.25 45.625 C63.57069681 48.51118362 52.52482839 55.98344107 45.5625 67 C38.49436352 79.85841779 37.68867113 92.4364714 40.96875 106.57421875 C44.21767135 117.36703703 52.32316365 127.28428431 61.75 133.375 C68.09256827 136.72609553 68.09256827 136.72609553 80 140 C80 151.22 80 162.44 80 174 C76.62833791 172.31416896 74.69925345 170.97339548 71.9375 168.5625 C51.17550901 151.81307535 25.96687839 143.32781307 0 139 C0 93.13 0 47.26 0 0 Z " fill="#ECE4CE" transform="translate(556,148)"/>
<path d="M0 0 C0 44.88 0 89.76 0 136 C-2.53290716 137.26645358 -4.74584659 137.39747767 -7.5625 137.75 C-21.08828183 139.76765806 -37.97511549 143.72540926 -49 152 C-51.75 152.1875 -51.75 152.1875 -54 152 C-54.33 153.32 -54.66 154.64 -55 156 C-55.99 156 -56.98 156 -58 156 C-58 156.66 -58 157.32 -58 158 C-59.11375 158.495 -60.2275 158.99 -61.375 159.5 C-67.6008624 162.59069598 -73.09693264 167.09693264 -78 172 C-78 161.11 -78 150.22 -78 139 C-72.06 137.02 -72.06 137.02 -66 135 C-53.27864197 128.89374814 -45.43739295 120.43813788 -39.90234375 107.41796875 C-36.31535908 96.55691285 -35.98017073 81.42989262 -41 71 C-48.86324271 56.45198507 -59.14064645 48.82980769 -74.875 44.0625 C-76.24631355 43.69431774 -77.61993524 43.33388664 -79 43 C-80.02927068 38.69993581 -80.15316202 35.2901536 -79 31 C-67.93075914 15.95361984 -44.21877392 7.87016703 -27 3 C-25.83726562 2.66097656 -24.67453125 2.32195312 -23.4765625 1.97265625 C-15.16014269 -0.2121659 -9.05246613 0 0 0 Z " fill="#ECE4CE" transform="translate(729,149)"/>
<path d="M0 0 C2.31 0 4.62 0 7 0 C7 45.87 7 91.74 7 139 C0.07 140.32 -6.86 141.64 -14 143 C-34.69978023 149.45950589 -55.51145277 159.16964892 -71.27734375 174.3828125 C-73 176 -73 176 -74 176 C-74 164.78 -74 153.56 -74 142 C-77.63 142 -81.26 142 -85 142 C-87.83274387 141.42658077 -90.29999253 140.84755645 -93 139.9375 C-94.01465332 139.60576782 -94.01465332 139.60576782 -95.04980469 139.26733398 C-103.72218069 136.26654385 -111.45093931 132.25570273 -116 124 C-117.01722488 122.78862736 -118.03839439 121.58056121 -119.0625 120.375 C-126.74602885 110.12381088 -125.82233745 96.38125231 -124.25 84.3125 C-121.99459795 71.77246458 -116.92736544 63.91750301 -107 56 C-101.46953708 52.24359467 -95.41390401 50.30927116 -89.109375 48.24609375 C-86.04033505 47.26637601 -86.04033505 47.26637601 -84.46484375 45.38671875 C-81.43312628 42.51669288 -76.95957933 43.37150173 -73.03515625 43.46484375 C-61.39151289 44.60157331 -50.58375879 51.37618286 -43 60 C-33.39750025 72.38701993 -30.68041952 84.647643 -32 100 C-34.44830837 113.79555793 -41.84445624 124.68769828 -53 133 C-59.73639823 137.28489405 -64.83289864 138.36657973 -73 140 C-72.67 150.23 -72.34 160.46 -72 171 C-68.37 168.03 -64.74 165.06 -61 162 C-56 159 -56 159 -53 159 C-53 158.34 -53 157.68 -53 157 C-52.01 157 -51.02 157 -50 157 C-49.95875 156.38125 -49.9175 155.7625 -49.875 155.125 C-49.58625 154.42375 -49.2975 153.7225 -49 153 C-46.4375 152 -46.4375 152 -43 151 C-41.73781468 150.39998899 -40.48823292 149.77300019 -39.25 149.125 C-31.78920378 145.33871578 -24.15128445 142.63219178 -16.125 140.3125 C-15.40650879 140.09795166 -14.68801758 139.88340332 -13.94775391 139.66235352 C-7.43280524 137.8429615 -2.0545224 137.58787687 5 137 C5 92.12 5 47.24 5 1 C3.35 1 1.7 1 0 1 C0 0.67 0 0.34 0 0 Z " fill="#F48774" transform="translate(724,148)"/>
<path d="M0 0 C4.62 0 9.24 0 14 0 C14.00808685 1.57409637 14.01617371 3.14819275 14.02450562 4.76998901 C14.10184867 19.57388634 14.18943855 34.37768243 14.28752708 49.18145561 C14.33769577 56.79298763 14.38413808 64.40450864 14.421875 72.01611328 C14.45476747 78.6486915 14.49458326 85.2811854 14.54279006 91.91367066 C14.56808254 95.42706142 14.58985554 98.94039605 14.60334396 102.45385361 C14.61851367 106.37151847 14.64913718 110.28897767 14.68115234 114.20654297 C14.68331253 115.37754547 14.68547272 116.54854797 14.68769836 117.7550354 C14.69886185 118.81796814 14.71002533 119.88090088 14.7215271 120.9760437 C14.72705786 121.90336744 14.73258862 122.83069118 14.73828697 123.78611565 C14.79261596 126.20541929 14.79261596 126.20541929 17 128 C19.34851629 128.56890023 19.34851629 128.56890023 22.1015625 128.89453125 C23.14103027 129.04237061 24.18049805 129.19020996 25.25146484 129.3425293 C26.36473145 129.49761963 27.47799805 129.65270996 28.625 129.8125 C52.35140355 133.40959885 72.51680781 142.05015088 92 156 C87.7682587 157.41058043 84.82555826 155.71991873 80.8125 154.25 C72.2823993 151.28082292 63.92487163 149.34887717 55 148 C54.22301758 147.8752832 53.44603516 147.75056641 52.64550781 147.62207031 C43.4640205 146.15866915 34.31164638 145.02612824 25.02734375 144.47265625 C24.00661774 144.41107582 24.00661774 144.41107582 22.965271 144.34825134 C19.58222129 144.14885494 16.19959451 143.9712476 12.81396484 143.82202148 C11.58242676 143.75700439 10.35088867 143.6919873 9.08203125 143.625 C7.98093018 143.57601562 6.8798291 143.52703125 5.74536133 143.4765625 C2.59853812 142.93031093 1.8693349 142.52518901 0 140 C-0.36914349 137.44442463 -0.36914349 137.44442463 -0.36076355 134.32429504 C-0.36488754 133.14218948 -0.36901154 131.96008392 -0.3732605 130.74215698 C-0.35708176 128.79468063 -0.35708176 128.79468063 -0.34057617 126.80786133 C-0.33973003 125.42812621 -0.34020478 124.04838973 -0.34190369 122.6686554 C-0.3427656 118.92090069 -0.32510838 115.17343313 -0.30418181 111.42574525 C-0.28544754 107.50997508 -0.28366714 103.59419857 -0.28010559 99.6783905 C-0.27077555 92.26232326 -0.24614885 84.84638845 -0.21605712 77.43037957 C-0.18254291 68.98792583 -0.16603461 60.54546582 -0.15097082 52.10296214 C-0.11960008 34.73522929 -0.0662178 17.3676337 0 0 Z " fill="#E6DBC6" transform="translate(528,170)"/>
<path d="M0 0 C4.29 0 8.58 0 13 0 C13.04625069 18.3495671 13.08196498 36.69911428 13.10362434 55.04872704 C13.1139474 63.56831214 13.12802732 72.08786041 13.15087891 80.60742188 C13.17078136 88.03100694 13.18370895 95.45456533 13.18817699 102.87817633 C13.19078972 106.81078937 13.19695198 110.74332612 13.21146011 114.67591476 C13.22499444 118.37436541 13.22923111 122.07270805 13.22621536 125.77118111 C13.2270314 127.78184 13.23781468 129.79248702 13.24884033 131.80311584 C13.246091 132.99226089 13.24334167 134.18140594 13.24050903 135.40658569 C13.24235262 136.44452459 13.24419621 137.48246349 13.24609566 138.55185509 C13 141 13 141 11 143 C8.17211914 143.34716797 8.17211914 143.34716797 4.53515625 143.4921875 C3.17706055 143.55525664 1.81898851 143.61883692 0.4609375 143.68286133 C-0.25610352 143.71360748 -0.97314453 143.74435364 -1.71191406 143.77603149 C-23.66423328 144.75221857 -45.05154332 147.11660788 -66 154 C-68.18337464 154.61890935 -70.37046468 155.22500128 -72.5625 155.8125 C-73.43003906 156.04582031 -74.29757812 156.27914062 -75.19140625 156.51953125 C-75.78824219 156.67808594 -76.38507812 156.83664062 -77 157 C-63.06442194 142.51400414 -42.50257382 134.63371497 -23.0625 130.875 C-22.23298828 130.70613281 -21.40347656 130.53726563 -20.54882812 130.36328125 C-15.37679843 129.34253879 -10.29134325 128.68872226 -5.02905273 128.34814453 C-2.77800544 128.16290194 -2.77800544 128.16290194 -1 126 C-0.68551964 123.69254399 -0.68551964 123.69254399 -0.7215271 120.9760437 C-0.71036362 119.91311096 -0.69920013 118.85017822 -0.68769836 117.7550354 C-0.68553818 116.5840329 -0.68337799 115.4130304 -0.68115234 114.20654297 C-0.67110672 112.97730103 -0.6610611 111.74805908 -0.65071106 110.48156738 C-0.62506618 107.1057235 -0.60824337 103.7300487 -0.59528303 100.35414648 C-0.57967973 96.82801845 -0.55288066 93.30197628 -0.5272522 89.77590942 C-0.48041464 83.09655681 -0.44369471 76.41718814 -0.41057932 69.73775494 C-0.37239301 62.13441456 -0.32297377 54.5311603 -0.27259517 46.92789245 C-0.16920133 31.28532282 -0.08036373 15.64270583 0 0 Z " fill="#ECE4CF" transform="translate(745,170)"/>
<path d="M0 0 C0.7027002 0.22171875 1.40540039 0.4434375 2.12939453 0.671875 C18.49971345 6.00589319 32.68958525 14.16737015 46 25 C46.99 25.66 47.98 26.32 49 27 C49.680625 26.38253906 50.36125 25.76507813 51.0625 25.12890625 C59.10437987 18.10295535 67.52341508 12.88272921 77 8 C77.91136719 7.51789063 78.82273437 7.03578125 79.76171875 6.5390625 C96.02919251 -1.47975502 115.07319064 -5.53384331 133.0625 -6.8125 C133.75303467 -6.86575439 134.44356934 -6.91900879 135.1550293 -6.97387695 C139.81769792 -7.22537606 143.61796324 -6.5919759 148 -5 C151.0103245 -1.9896755 150.97819673 0.22903621 151.09765625 4.453125 C151.08025391 6.33257812 151.08025391 6.33257812 151.0625 8.25 C151.05347656 9.51328125 151.04445313 10.7765625 151.03515625 12.078125 C151.01775391 13.52445313 151.01775391 13.52445313 151 15 C151.85231201 14.97905273 152.70462402 14.95810547 153.58276367 14.93652344 C156.76029433 14.86814756 159.93744871 14.81810262 163.11547852 14.78027344 C164.48800023 14.7602201 165.86043717 14.73296972 167.23266602 14.69824219 C169.21072044 14.64945448 171.18941119 14.62911124 173.16796875 14.609375 C174.35672607 14.58842773 175.5454834 14.56748047 176.77026367 14.54589844 C180.67274403 15.09458794 182.26983792 16.20024616 185 19 C186.3125 22.75 186.3125 22.75 187 26 C186.34 26.33 185.68 26.66 185 27 C184.34 24.36 183.68 21.72 183 19 C181.93471069 19.01571045 181.93471069 19.01571045 180.84790039 19.03173828 C177.58613721 19.07367486 174.32443104 19.09944486 171.0625 19.125 C169.94552734 19.14175781 168.82855469 19.15851563 167.67773438 19.17578125 C161.11022104 19.21430039 155.34660678 18.70947839 149 17 C148.93941406 15.79601562 148.87882813 14.59203125 148.81640625 13.3515625 C148.73200268 11.77602923 148.64735459 10.20050904 148.5625 8.625 C148.52318359 7.8309375 148.48386719 7.036875 148.44335938 6.21875 C148.31106596 1.97398779 148.31106596 1.97398779 147 -2 C127.61164474 -2.98724298 107.66878229 0.76537486 90 9 C89.34 9.66 88.68 10.32 88 11 C86.05171915 11.46230393 84.10314689 11.92345786 82.15234375 12.375 C77.56371617 13.70745084 73.80042118 16.4557136 69.875 19.125 C67 21 67 21 64.1875 22.0625 C63.465625 22.371875 62.74375 22.68125 62 23 C61.67 23.99 61.34 24.98 61 26 C57.55555556 29 57.55555556 29 55 29 C55 29.66 55 30.32 55 31 C52.4375 31.875 52.4375 31.875 49 32 C45.5926011 29.88228327 42.91777013 26.98120133 40.19140625 24.06640625 C18.84886636 3.94126614 -15.60513901 -3.63799385 -44.02734375 -3.30078125 C-48.00053713 -3.43393249 -48.00053713 -3.43393249 -50 -1 C-50.36894582 1.03060659 -50.36894582 1.03060659 -50.4140625 3.3515625 C-50.44967285 4.11807129 -50.4852832 4.88458008 -50.52197266 5.67431641 C-50.55597168 6.64804199 -50.5899707 7.62176758 -50.625 8.625 C-50.810625 13.265625 -50.810625 13.265625 -51 18 C-60.57 17.67 -70.14 17.34 -80 17 C-80 17.66 -80 18.32 -80 19 C-80.804375 19.5775 -81.60875 20.155 -82.4375 20.75 C-85.64967291 23.5704445 -85.55911667 24.82381617 -86 29 C-86.09243648 31.3606543 -86.13473201 33.72354205 -86.14044189 36.08599854 C-86.14341302 36.77575075 -86.14638414 37.46550296 -86.1494453 38.17615676 C-86.15807871 40.4745467 -86.15963591 42.77288423 -86.16113281 45.07128906 C-86.16576443 46.72408152 -86.17078955 48.37687292 -86.17617798 50.02966309 C-86.18926242 54.50863768 -86.19573804 58.98759732 -86.20018864 63.46658802 C-86.203123 66.26371524 -86.20722827 69.06083839 -86.21169281 71.85796356 C-86.2253512 80.60702185 -86.23502855 89.35607081 -86.2388947 98.10513902 C-86.2433853 108.21136818 -86.26098637 118.31746276 -86.2898953 128.42365098 C-86.31146754 136.23520635 -86.32159643 144.0467237 -86.32293582 151.85830855 C-86.32398615 156.52526387 -86.32994329 161.19209239 -86.34775543 165.85901642 C-86.36416136 170.24211294 -86.36642837 174.62498625 -86.35761642 179.00810242 C-86.35684228 180.61983078 -86.36123808 182.23157081 -86.37107468 183.84326935 C-86.38367987 186.03642884 -86.37798124 188.22878363 -86.36749268 190.42193604 C-86.36895924 191.65118931 -86.3704258 192.88044258 -86.3719368 194.14694595 C-86.24919765 195.08845379 -86.12645851 196.02996162 -86 197 C-82.0871522 199.6085652 -78.78781746 199.27748823 -74.24926758 199.25537109 C-73.35459778 199.25899155 -72.45992798 199.262612 -71.53814697 199.26634216 C-69.59347873 199.27323988 -67.64879111 199.2757409 -65.7041111 199.27439499 C-62.62248769 199.2734306 -59.54121393 199.28636313 -56.4596405 199.30337524 C-47.69732404 199.3496647 -38.93504189 199.37424098 -30.17260742 199.38085938 C-24.81328607 199.38588367 -19.4543274 199.41018462 -14.09512901 199.44618607 C-12.05589669 199.4559668 -10.01661435 199.45832547 -7.97736549 199.45301437 C-5.11708699 199.44591703 -2.25788225 199.46328249 0.60229492 199.48583984 C1.43843826 199.47766739 2.2745816 199.46949493 3.13606262 199.46107483 C12.15461111 199.58703735 18.13896504 203.86958993 25.1171875 209.21875 C32.71108577 213.91091478 39.86312691 215.75592106 48.75 215.6875 C49.70938477 215.68242432 50.66876953 215.67734863 51.65722656 215.67211914 C60.52307681 215.38528281 66.5951555 212.98477163 74 208 C74.99 207.34386719 75.98 206.68773437 77 206.01171875 C78.72255156 204.82991136 80.42888617 203.62370326 82.109375 202.3828125 C86.15550059 199.42345618 89.96621244 199.8339148 94.80834961 199.81054688 C96.17681282 199.79810692 96.17681282 199.79810692 97.57292175 199.78541565 C99.55799038 199.76799272 101.54307983 199.75283207 103.52818108 199.73963928 C106.66708178 199.71865146 109.80587802 199.69162515 112.94471741 199.66296387 C119.60893835 199.60320223 126.2732076 199.55108067 132.9375 199.5 C140.65442726 199.44081707 148.37130308 199.3785423 156.08813667 199.30812073 C159.18528223 199.28150405 162.28243283 199.26071386 165.37962341 199.2401123 C167.27383675 199.22351102 169.16804774 199.20663933 171.06225586 199.18945312 C171.92729736 199.18526871 172.79233887 199.18108429 173.68359375 199.17677307 C177.03249026 199.14150002 179.80142625 199.06619125 183 198 C182.67 198.99 182.34 199.98 182 201 C178.1029074 202.29903087 174.40290101 202.14441175 170.34106445 202.1418457 C169.45614822 202.14532013 168.57123199 202.14879456 167.65950012 202.15237427 C165.73610882 202.15972951 163.81270904 202.16507613 161.88930702 202.16866493 C158.84135188 202.17583282 155.7935575 202.19150292 152.74565125 202.21000671 C144.07891067 202.26245373 135.41225712 202.31043009 126.74536133 202.32592773 C121.44436903 202.33602829 116.14377982 202.36540771 110.84294701 202.40724754 C108.82605226 202.41953502 106.80910051 202.42468293 104.79216957 202.42244911 C101.96298093 202.42008725 99.13494117 202.44233057 96.3059082 202.4699707 C95.4791156 202.46336929 94.652323 202.45676788 93.80047607 202.44996643 C85.81744153 202.57744374 80.24020253 205.8591477 73.9375 210.5625 C63.42384835 218.09298362 52.6300333 218.97653376 40 218 C30.7546764 216.45726293 23.56810941 211.43278609 16.0546875 206.14453125 C11.32716342 202.82559171 8.04672068 202.84385373 2.40698242 202.82641602 C1.51739334 202.819729 0.62780426 202.81304199 -0.28874207 202.80615234 C-2.22470023 202.79208231 -4.16067519 202.78019451 -6.09665871 202.77020454 C-9.16050411 202.75382084 -12.22422549 202.73058334 -15.28800964 202.70530701 C-24.00061887 202.63446352 -32.71327926 202.57443059 -41.42602539 202.52319336 C-46.75168432 202.49139317 -52.07720181 202.45011246 -57.4027462 202.40299797 C-59.43329001 202.38698136 -61.46386643 202.37465822 -63.49445534 202.36609077 C-66.33604909 202.35393052 -69.17731079 202.32977671 -72.01879883 202.30297852 C-73.27752304 202.3020948 -73.27752304 202.3020948 -74.56167603 202.30119324 C-79.61762966 202.23804412 -83.69237 201.89555321 -87.75 198.5625 C-90.52183085 195.09771144 -90.13036799 191.42020949 -90.14044189 187.18106079 C-90.14341302 186.48373789 -90.14638414 185.78641499 -90.1494453 185.0679611 C-90.15813337 182.72579661 -90.15964062 180.38368324 -90.16113281 178.04150391 C-90.16576087 176.36446524 -90.17078551 174.68742762 -90.17617798 173.01039124 C-90.18930418 168.45046163 -90.19574723 163.89054676 -90.20018864 159.33060122 C-90.20311867 156.48271136 -90.20722333 153.63482554 -90.21169281 150.78693771 C-90.22536759 141.87928397 -90.23503465 132.97163944 -90.2388947 124.06397593 C-90.24337721 113.77606594 -90.26093411 103.48828869 -90.2898953 93.20041907 C-90.31149727 85.25129887 -90.32159817 77.30221605 -90.32293582 69.3530668 C-90.32398481 64.60381175 -90.32991259 59.85468149 -90.34775543 55.10545731 C-90.36421073 50.63867341 -90.36640403 46.17210846 -90.35761642 41.7053051 C-90.35684472 40.06581347 -90.36120637 38.42631018 -90.37107468 36.78684807 C-90.38375724 34.54860574 -90.37793812 32.3111432 -90.36749268 30.07290649 C-90.36895924 28.82039911 -90.3704258 27.56789173 -90.3719368 26.27742958 C-89.96700795 22.7092809 -89.13158842 20.85684976 -87 18 C-83.14513331 14.95873158 -80.2275629 14.64071832 -75.38671875 14.70703125 C-74.13955078 14.71669922 -72.89238281 14.72636719 -71.60742188 14.73632812 C-70.31384766 14.76146484 -69.02027344 14.78660156 -67.6875 14.8125 C-65.71813477 14.83280273 -65.71813477 14.83280273 -63.70898438 14.85351562 C-60.47223923 14.88882557 -57.23632895 14.9381472 -54 15 C-53.96261719 13.73542969 -53.92523437 12.47085938 -53.88671875 11.16796875 C-53.82106167 9.5077827 -53.75461424 7.84762778 -53.6875 6.1875 C-53.66494141 5.35412109 -53.64238281 4.52074219 -53.61914062 3.66210938 C-53.58369141 2.85966797 -53.54824219 2.05722656 -53.51171875 1.23046875 C-53.47244263 0.12288208 -53.47244263 0.12288208 -53.43237305 -1.00708008 C-52.87871337 -3.55904167 -52.07100804 -4.43519259 -50 -6 C-36.09845007 -11.23874337 -13.70679886 -4.32751378 0 0 Z " fill="#583920" transform="translate(595,140)"/>
<path d="M0 0 C1.32 0 2.64 0 4 0 C4.07005556 17.92385887 4.12297121 35.84768225 4.15543652 53.77164841 C4.17091084 62.09390589 4.1920111 70.41607834 4.22631836 78.73828125 C4.25620348 85.99122081 4.27557089 93.24409879 4.28226548 100.49709821 C4.28617927 104.33815714 4.29538879 108.1790399 4.31719017 112.02004242 C4.33754141 115.63481731 4.34383663 119.24934334 4.33932304 122.86417007 C4.34054284 124.82436545 4.35669213 126.78453369 4.3732605 128.74465942 C4.36913651 129.91131134 4.36501251 131.07796326 4.36076355 132.27996826 C4.36352893 133.29394054 4.36629431 134.30791283 4.36914349 135.35261154 C3.9420339 138.41571581 3.11182948 139.7745937 1 142 C-1.03369141 142.77368164 -1.03369141 142.77368164 -3.3515625 143.16015625 C-4.20363281 143.31419922 -5.05570313 143.46824219 -5.93359375 143.62695312 C-7.26583984 143.84254883 -7.26583984 143.84254883 -8.625 144.0625 C-17.03437437 145.49748266 -24.92393839 147.34880377 -32.625 151.125 C-35.47834765 152.4404081 -37.38563841 153.05412469 -40.5625 153.5 C-44.36216734 154.05267889 -46.89308199 155.29991208 -50.203125 157.16015625 C-52 158 -52 158 -55 158 C-55.24105469 158.763125 -55.48210938 159.52625 -55.73046875 160.3125 C-57.20267932 163.42905653 -58.38440832 164.26775081 -61.3125 166 C-65.09769878 168.35889199 -67.99801911 170.7165834 -71 174 C-72 175 -72 175 -75.0625 175.0625 C-76.031875 175.041875 -77.00125 175.02125 -78 175 C-78 171 -78 171 -76.8828125 169.46484375 C-56.8395927 152.04951277 -26.89273747 137 0 137 C0 91.79 0 46.58 0 0 Z " fill="#5A3C23" transform="translate(731,150)"/>
<path d="M0 0 C0.99 0 1.98 0 3 0 C4.30061816 2.60123632 4.1288388 4.49388067 4.13371277 7.40791321 C4.14011024 9.13030716 4.14011024 9.13030716 4.14663696 10.88749695 C4.14595718 12.78650505 4.14595718 12.78650505 4.14526367 14.72387695 C4.14825468 16.06579685 4.15165708 17.40771589 4.15544128 18.74963379 C4.16429285 22.40056567 4.16661992 26.05147413 4.16725707 29.7024157 C4.16820561 32.74905972 4.1718834 35.79569826 4.17542917 38.84234017 C4.18357863 46.03120811 4.18601301 53.22006352 4.18530273 60.40893555 C4.18470226 67.8252023 4.19524688 75.24139624 4.2110464 82.65764457 C4.2241238 89.02289431 4.22948653 95.38812027 4.22884732 101.75338334 C4.22859233 105.55582783 4.23144393 109.35820769 4.24202538 113.16063881 C4.25170937 116.73848338 4.2517835 120.31620157 4.24450874 123.8940506 C4.24296502 125.83134574 4.25130816 127.76864087 4.25994873 129.70591736 C4.25575424 130.86263947 4.25155975 132.01936157 4.24723816 133.21113586 C4.24778293 134.21421437 4.24832769 135.21729288 4.24888897 136.25076771 C3.97892789 139.23276291 3.37555831 141.34382972 2 144 C-1.78681501 146.52454334 -4.94175608 146.37779104 -9.33984375 146.4921875 C-11.05088836 146.55513126 -12.7619065 146.61879784 -14.47290039 146.68310547 C-15.36639191 146.71386169 -16.25988342 146.74461792 -17.18045044 146.77630615 C-32.09704698 147.31027418 -46.53438936 148.05996413 -61 152 C-62.43337111 152.37195279 -63.86696601 152.74304422 -65.30078125 153.11328125 C-67.82207593 153.77136891 -70.32827503 154.45755873 -72.8359375 155.16796875 C-75.88117615 155.96875373 -78.88761226 156.53455229 -82 157 C-82.33 155.35 -82.66 153.7 -83 152 C-75.80167434 149.60903671 -68.58007643 147.55930297 -61.1875 145.875 C-60.17840576 145.63765137 -60.17840576 145.63765137 -59.14892578 145.39550781 C-45.08066325 142.28372426 -30.71565776 141.56052876 -16.37109375 140.89550781 C-14.1974285 140.79249498 -12.02458531 140.67817013 -9.8515625 140.5625 C-8.58135254 140.50191406 -7.31114258 140.44132813 -6.00244141 140.37890625 C-2.88895276 140.29762486 -2.88895276 140.29762486 -1 138 C-0.684892 135.49126095 -0.684892 135.49126095 -0.7215271 132.52047729 C-0.71036362 131.35657471 -0.69920013 130.19267212 -0.68769836 128.99349976 C-0.68553818 127.71028839 -0.68337799 126.42707703 -0.68115234 125.10498047 C-0.67185791 123.74509075 -0.66168997 122.38520675 -0.65071106 121.02532959 C-0.62334216 117.32723104 -0.60824137 113.62917072 -0.59528303 109.93099737 C-0.57968251 106.06854698 -0.55288255 102.20617503 -0.5272522 98.34378052 C-0.48040971 91.0269377 -0.44369216 83.71008022 -0.41057932 76.3931638 C-0.37239649 68.06432789 -0.32297634 59.73557065 -0.27259517 51.40680099 C-0.16919401 34.27125751 -0.07996032 17.13566855 0 0 Z " fill="#71553A" transform="translate(759,172)"/>
<path d="M0 0 C0.80445557 -0.00652588 1.60891113 -0.01305176 2.43774414 -0.01977539 C3.30133545 -0.00551514 4.16492676 0.00874512 5.0546875 0.0234375 C5.95630615 0.03576416 6.8579248 0.04809082 7.78686523 0.06079102 C21.55636871 0.39917659 33.74338945 3.45037588 46.8046875 7.7109375 C48.49863647 8.26092407 48.49863647 8.26092407 50.22680664 8.82202148 C57.58478699 11.32013129 64.23891665 14.44999239 70.9296875 18.3984375 C70.2696875 18.7284375 69.6096875 19.0584375 68.9296875 19.3984375 C66.71235595 18.4176947 64.58457916 17.37749204 62.4296875 16.2734375 C44.99165942 7.81530735 18.31354732 0.28916736 -1.0703125 4.3984375 C-4.214438 7.97042338 -4.35084726 10.83795843 -4.0703125 15.4609375 C-3.74677082 20.8061156 -3.74677082 20.8061156 -5.2487793 23.5559082 C-7.0703125 25.3984375 -7.0703125 25.3984375 -9.51879883 25.82080078 C-10.47036865 25.78712402 -11.42193848 25.75344727 -12.40234375 25.71875 C-13.97145508 25.68587891 -13.97145508 25.68587891 -15.57226562 25.65234375 C-16.66474609 25.60980469 -17.75722656 25.56726563 -18.8828125 25.5234375 C-29.27460547 24.8164892 -29.27460547 24.8164892 -38.69700336 28.54248524 C-40.79636299 31.37965507 -40.45631269 33.79409039 -40.46903992 37.28898621 C-40.47568674 37.99392049 -40.48233357 38.69885477 -40.48918182 39.42515069 C-40.50787011 41.79293828 -40.50520271 44.16022313 -40.50268555 46.52807617 C-40.51169918 48.22308571 -40.52202541 49.9180887 -40.53356934 51.61308289 C-40.56121243 56.2202134 -40.57043374 60.82722049 -40.57642341 65.43442321 C-40.5857881 70.24712908 -40.61198989 75.05974206 -40.63642883 79.87239075 C-40.68015005 88.98834246 -40.70866245 98.10427621 -40.73175222 107.22030097 C-40.75877379 117.59749361 -40.80268714 127.97459307 -40.84804094 138.35171926 C-40.94096773 159.70057526 -41.01261163 181.04945915 -41.0703125 202.3984375 C-41.7303125 202.0684375 -42.3903125 201.7384375 -43.0703125 201.3984375 C-43.11704404 179.61486315 -43.15230702 157.83129708 -43.17393684 136.04768276 C-43.18424712 125.93305726 -43.19830272 115.81846292 -43.22119141 105.70385742 C-43.24113287 96.88743588 -43.25403075 88.0710369 -43.25848949 79.25459343 C-43.26109558 74.58685485 -43.26721591 69.91918082 -43.28177261 65.25146294 C-43.29536843 60.85616255 -43.29953108 56.46095319 -43.29652786 52.06563377 C-43.29707713 50.45439916 -43.30104265 48.84316144 -43.30872345 47.23194504 C-43.3187161 45.02723545 -43.3162658 42.82286676 -43.31082153 40.6181488 C-43.31266512 39.38571158 -43.31450871 38.15327436 -43.31640816 36.88349056 C-42.99905965 32.38939918 -42.37759751 28.08701398 -39.5703125 24.4609375 C-38.0703125 23.3984375 -38.0703125 23.3984375 -36.0703125 23.3984375 C-36.0703125 22.7384375 -36.0703125 22.0784375 -36.0703125 21.3984375 C-32.17449494 21.36932747 -28.2787055 21.35160163 -24.3828125 21.3359375 C-23.28001953 21.32755859 -22.17722656 21.31917969 -21.04101562 21.31054688 C-19.4409668 21.30571289 -19.4409668 21.30571289 -17.80859375 21.30078125 C-16.82930908 21.29554443 -15.85002441 21.29030762 -14.84106445 21.28491211 C-12.14561678 21.39535207 -9.69485611 21.79309584 -7.0703125 22.3984375 C-7.08602295 21.83858154 -7.1017334 21.27872559 -7.11791992 20.7019043 C-7.18031098 18.1633516 -7.21931468 15.62496021 -7.2578125 13.0859375 C-7.28294922 12.20486328 -7.30808594 11.32378906 -7.33398438 10.41601562 C-7.34365234 9.56845703 -7.35332031 8.72089844 -7.36328125 7.84765625 C-7.3789917 7.06737061 -7.39470215 6.28708496 -7.41088867 5.4831543 C-7.0703125 3.3984375 -7.0703125 3.3984375 -5.80639648 1.64526367 C-3.69802602 0.13106765 -2.57859073 0.01222081 0 0 Z " fill="#715339" transform="translate(551.0703125,135.6015625)"/>
<path d="M0 0 C2.31 0 4.62 0 7 0 C7 45.87 7 91.74 7 139 C0.07 140.32 -6.86 141.64 -14 143 C-34.69978023 149.45950589 -55.51145277 159.16964892 -71.27734375 174.3828125 C-73 176 -73 176 -74 176 C-74 164.12 -74 152.24 -74 140 C-73.67 140 -73.34 140 -73 140 C-72.67 150.23 -72.34 160.46 -72 171 C-68.37 168.03 -64.74 165.06 -61 162 C-56 159 -56 159 -53 159 C-53 158.34 -53 157.68 -53 157 C-52.01 157 -51.02 157 -50 157 C-49.95875 156.38125 -49.9175 155.7625 -49.875 155.125 C-49.58625 154.42375 -49.2975 153.7225 -49 153 C-46.4375 152 -46.4375 152 -43 151 C-41.73781468 150.39998899 -40.48823292 149.77300019 -39.25 149.125 C-31.78920378 145.33871578 -24.15128445 142.63219178 -16.125 140.3125 C-15.40650879 140.09795166 -14.68801758 139.88340332 -13.94775391 139.66235352 C-7.43280524 137.8429615 -2.0545224 137.58787687 5 137 C5 92.12 5 47.24 5 1 C3.35 1 1.7 1 0 1 C0 0.67 0 0.34 0 0 Z " fill="#BEAA8E" transform="translate(724,148)"/>
<path d="M0 0 C0.66 0 1.32 0 2 0 C2.04667191 18.08879754 2.08196519 36.1775795 2.10362434 54.26642418 C2.1139473 62.66494125 2.12802704 71.06342097 2.15087891 79.46191406 C2.17078165 86.7800237 2.18370901 94.09810629 2.18817699 101.41624224 C2.19078967 105.29296441 2.19695162 109.16960919 2.21146011 113.04630661 C2.22499489 116.69222802 2.22923102 120.33803985 2.22621536 123.98398399 C2.22703136 125.96601633 2.23781441 127.94803662 2.24884033 129.93003845 C2.246091 131.10235519 2.24334167 132.27467194 2.24050903 133.48251343 C2.24235262 134.50570364 2.24419621 135.52889385 2.24609566 136.58308983 C2 139 2 139 0 141 C-2.82788086 141.34716797 -2.82788086 141.34716797 -6.46484375 141.4921875 C-7.82293945 141.55525664 -9.18101149 141.61883692 -10.5390625 141.68286133 C-11.25610352 141.71360748 -11.97314453 141.74435364 -12.71191406 141.77603149 C-33.49309076 142.7001396 -54.21147808 144.48082862 -74.03515625 151.14453125 C-77 152 -77 152 -79 151 C-66.66883187 144.36495522 -57.98585443 142.64189846 -44 143 C-44 142.34 -44 141.68 -44 141 C-40.97988195 140.6789761 -37.95916727 140.36835433 -34.9375 140.0625 C-33.72416992 139.93198242 -33.72416992 139.93198242 -32.48632812 139.79882812 C-21.652264 138.71941952 -10.93354657 138.47537159 0 138 C0 92.46 0 46.92 0 0 Z " fill="#D8C8AD" transform="translate(756,172)"/>
<path d="M0 0 C-2.31225535 3.09500327 -5.09872467 3.78098711 -8.70043945 4.83837891 C-18.83370039 7.83533811 -24.81111505 12.31172563 -32 20 C-32.721875 20.65484375 -33.44375 21.3096875 -34.1875 21.984375 C-39.69050398 28.10409495 -40.71554284 38.04705187 -41 46 C-41.0515625 47.01964844 -41.103125 48.03929687 -41.15625 49.08984375 C-41.51591147 61.6929811 -39.33219337 70.47138912 -31 80 C-30.505 80.99 -30.505 80.99 -30 82 C-34.92229989 79.91014423 -37.06112863 76.30136699 -40 72 C-40.721875 70.96875 -41.44375 69.9375 -42.1875 68.875 C-47.62807737 58.94992998 -48.39589525 46.083581 -45.6875 35.25 C-41.52878841 21.63967117 -33.37212791 10.79703626 -20.77685547 4.00244141 C-14.25672444 0.67054541 -7.37498099 -2.76561787 0 0 Z " fill="#A65D47" transform="translate(641,193)"/>
<path d="M0 0 C0 0.99 0 1.98 0 3 C-3.8970926 4.29903087 -7.59709899 4.14441175 -11.65893555 4.1418457 C-12.54385178 4.14532013 -13.42876801 4.14879456 -14.34049988 4.15237427 C-16.26389118 4.15972951 -18.18729096 4.16507613 -20.11069298 4.16866493 C-23.15864812 4.17583282 -26.2064425 4.19150292 -29.25434875 4.21000671 C-37.92108933 4.26245373 -46.58774288 4.31043009 -55.25463867 4.32592773 C-60.55563097 4.33602829 -65.85622018 4.36540771 -71.15705299 4.40724754 C-73.17394774 4.41953502 -75.19089949 4.42468293 -77.20783043 4.42244911 C-80.03701907 4.42008725 -82.86505883 4.44233057 -85.6940918 4.4699707 C-86.9342807 4.46006859 -86.9342807 4.46006859 -88.19952393 4.44996643 C-96.18255847 4.57744374 -101.75979747 7.8591477 -108.0625 12.5625 C-118.57615165 20.09298362 -129.3699667 20.97653376 -142 20 C-151.2453236 18.45726293 -158.43189059 13.43278609 -165.9453125 8.14453125 C-169.8363851 5.41281916 -171.51101774 4.87075087 -176.18408203 4.79467773 C-177.26505157 4.77473251 -178.34602112 4.75478729 -179.45974731 4.73423767 C-180.63060883 4.71752518 -181.80147034 4.70081268 -183.0078125 4.68359375 C-184.20356903 4.66281265 -185.39932556 4.64203156 -186.63131714 4.62062073 C-190.46248464 4.55507711 -194.29372238 4.49621782 -198.125 4.4375 C-200.71745527 4.39431937 -203.30990336 4.35070523 -205.90234375 4.30664062 C-212.26815427 4.19939081 -218.63403513 4.0976334 -225 4 C-225 3.67 -225 3.34 -225 3 C-217.59915657 2.75479689 -210.19788498 2.54263696 -202.79541016 2.35302734 C-200.27924352 2.28472538 -197.76326756 2.20896333 -195.24755859 2.12548828 C-191.62362066 2.00655319 -187.99983592 1.91479169 -184.375 1.828125 C-182.69796997 1.76434662 -182.69796997 1.76434662 -180.98706055 1.69927979 C-170.71253536 1.50238326 -164.92721748 5.05230716 -156.8828125 11.21875 C-149.28891423 15.91091478 -142.13687309 17.75592106 -133.25 17.6875 C-132.29061523 17.68242432 -131.33123047 17.67734863 -130.34277344 17.67211914 C-121.47692319 17.38528281 -115.4048445 14.98477163 -108 10 C-107.01 9.34386719 -106.02 8.68773437 -105 8.01171875 C-103.27744844 6.82991136 -101.57111383 5.62370326 -99.890625 4.3828125 C-95.84072748 1.42069737 -92.02231469 1.83389371 -87.17578125 1.81054688 C-86.26186615 1.80225357 -85.34795105 1.79396027 -84.40634155 1.78541565 C-82.4179967 1.76799339 -80.42963107 1.75283256 -78.44125366 1.73963928 C-75.29842698 1.71865604 -72.15570482 1.69163018 -69.01293945 1.66296387 C-61.20720586 1.59303748 -53.4013979 1.53369423 -45.59558105 1.47393799 C-39.00267148 1.42306641 -32.40981787 1.36825635 -25.81698608 1.30812073 C-22.71370083 1.28147497 -19.61041058 1.26070352 -16.50708008 1.2401123 C-14.61279042 1.22351418 -12.71850313 1.20664277 -10.82421875 1.18945312 C-9.95558197 1.18526871 -9.08694519 1.18108429 -8.19198608 1.17677307 C-3.96125269 1.24919939 -3.96125269 1.24919939 0 0 Z " fill="#5E4022" transform="translate(777,338)"/>
<path d="M0 0 C2.91500932 3.85134565 2.39467106 8.29740026 2.3515625 12.953125 C2.34253906 14.21640625 2.33351563 15.4796875 2.32421875 16.78125 C2.31261719 17.74546875 2.30101562 18.7096875 2.2890625 19.703125 C3.14137451 19.68217773 3.99368652 19.66123047 4.87182617 19.63964844 C8.04935683 19.57127256 11.22651121 19.52122762 14.40454102 19.48339844 C15.77706273 19.4633451 17.14949967 19.43609472 18.52172852 19.40136719 C20.49978294 19.35257948 22.47847369 19.33223624 24.45703125 19.3125 C25.64578857 19.29155273 26.8345459 19.27060547 28.05932617 19.24902344 C31.96180653 19.79771294 33.55890042 20.90337116 36.2890625 23.703125 C37.6015625 27.453125 37.6015625 27.453125 38.2890625 30.703125 C37.2990625 31.198125 37.2990625 31.198125 36.2890625 31.703125 C35.2990625 27.743125 35.2990625 27.743125 34.2890625 23.703125 C33.57886963 23.71359863 32.86867676 23.72407227 32.13696289 23.73486328 C28.87519971 23.77679986 25.61349354 23.80256986 22.3515625 23.828125 C21.23458984 23.84488281 20.11761719 23.86164063 18.96679688 23.87890625 C12.39928354 23.91742539 6.63566928 23.41260339 0.2890625 21.703125 C0.24007812 20.51074219 0.19109375 19.31835938 0.140625 18.08984375 C0.06558646 16.52341432 -0.0099609 14.95700921 -0.0859375 13.390625 C-0.116875 12.60494141 -0.1478125 11.81925781 -0.1796875 11.00976562 C-0.21835937 10.25244141 -0.25703125 9.49511719 -0.296875 8.71484375 C-0.3282959 8.01834717 -0.3597168 7.32185059 -0.39208984 6.60424805 C-0.63212003 4.37779761 -0.63212003 4.37779761 -2.7109375 1.703125 C-5.8824422 0.99532844 -9.15783857 1.18180709 -12.3984375 1.203125 C-13.37433838 1.20739502 -14.35023926 1.21166504 -15.35571289 1.21606445 C-30.69447431 1.56258553 -45.59246407 5.55569914 -59.9453125 10.78515625 C-62.7109375 11.703125 -62.7109375 11.703125 -65.7109375 11.703125 C-66.0409375 12.693125 -66.3709375 13.683125 -66.7109375 14.703125 C-68.75485141 15.32669196 -70.79894196 15.94968386 -72.84375 16.5703125 C-81.48580174 19.98474711 -89.58874428 26.09467455 -96.2578125 32.48828125 C-97.7109375 33.703125 -97.7109375 33.703125 -99.7109375 33.703125 C-95.35634019 23.32084825 -81.20358614 17.67462612 -71.7109375 12.703125 C-70.79699219 12.2184375 -69.88304687 11.73375 -68.94140625 11.234375 C-54.5358036 4.15634661 -14.3056417 -10.84354576 0 0 Z " fill="#321604" transform="translate(743.7109375,135.296875)"/>
<path d="M0 0 C0.66 0 1.32 0 2 0 C2 41.25 2 82.5 2 125 C1.01 124.67 0.02 124.34 -1 124 C-1.02332916 107.98006463 -1.04097926 91.96013474 -1.05181217 75.9401865 C-1.05697509 68.5023549 -1.06401771 61.06453383 -1.07543945 53.62670898 C-1.08538641 47.14618658 -1.09185346 40.66567181 -1.09408849 34.18514198 C-1.09539558 30.75169458 -1.0984813 27.318269 -1.10573006 23.88482857 C-1.11374416 20.05806179 -1.11399113 16.23131665 -1.11352539 12.40454102 C-1.11712067 11.25799545 -1.12071594 10.11144989 -1.12442017 8.93016052 C-1.1230455 7.89384491 -1.12167084 6.8575293 -1.12025452 5.78981018 C-1.12117631 4.88368768 -1.1220981 3.97756517 -1.12304783 3.04398441 C-1 1 -1 1 0 0 Z " fill="#62462D" transform="translate(543,172)"/>
<path d="M0 0 C1.32 0 2.64 0 4 0 C4.07005556 17.92385887 4.12297121 35.84768225 4.15543652 53.77164841 C4.17091084 62.09390589 4.1920111 70.41607834 4.22631836 78.73828125 C4.25620348 85.99122081 4.27557089 93.24409879 4.28226548 100.49709821 C4.28617927 104.33815714 4.29538879 108.1790399 4.31719017 112.02004242 C4.33754141 115.63481731 4.34383663 119.24934334 4.33932304 122.86417007 C4.34054284 124.82436545 4.35669213 126.78453369 4.3732605 128.74465942 C4.36707451 130.4946373 4.36707451 130.4946373 4.36076355 132.27996826 C4.36352893 133.29394054 4.36629431 134.30791283 4.36914349 135.35261154 C3.9420339 138.41571581 3.11182948 139.7745937 1 142 C-1.03369141 142.77368164 -1.03369141 142.77368164 -3.3515625 143.16015625 C-4.20363281 143.31419922 -5.05570313 143.46824219 -5.93359375 143.62695312 C-6.82175781 143.77068359 -7.70992187 143.91441406 -8.625 144.0625 C-18.04001323 145.66908571 -26.40331956 148.02789836 -34.95703125 152.328125 C-37.37765281 153.1241994 -38.62896825 152.83119315 -41 152 C-38.07792075 150.02052696 -35.24706137 148.66946397 -31.91015625 147.58984375 C-31.11440186 147.33082275 -30.31864746 147.07180176 -29.4987793 146.80493164 C-28.67418213 146.5393042 -27.84958496 146.27367676 -27 146 C-26.20827393 145.74017334 -25.41654785 145.48034668 -24.60083008 145.21264648 C-22.19502514 144.42447441 -19.78549671 143.64869169 -17.375 142.875 C-16.56804688 142.61074219 -15.76109375 142.34648437 -14.9296875 142.07421875 C-11.25322412 140.89846666 -7.87868967 139.98301177 -4.0390625 139.4453125 C-0.89555767 139.29363663 -0.89555767 139.29363663 1 137 C1.31496082 134.54157608 1.31496082 134.54157608 1.2784729 131.6343689 C1.28963638 130.49570877 1.30079987 129.35704865 1.31230164 128.18388367 C1.31446182 126.92872452 1.31662201 125.67356537 1.31884766 124.38037109 C1.33391609 122.40483498 1.33391609 122.40483498 1.34928894 120.38938904 C1.37665637 116.7718667 1.39175819 113.15438344 1.40471697 109.53678465 C1.42031814 105.75841492 1.44711789 101.98012536 1.4727478 98.20181274 C1.51958914 91.04434243 1.55630725 83.88685713 1.58942068 76.72931159 C1.62760433 68.58184963 1.67702426 60.43446809 1.72740483 52.28707385 C1.83080429 35.52477359 1.92003852 18.76242879 2 2 C1.34 2 0.68 2 0 2 C0 1.34 0 0.68 0 0 Z " fill="#6D4F35" transform="translate(731,150)"/>
<path d="M0 0 C0 0.33 0 0.66 0 1 C-1.25876953 1.03867188 -1.25876953 1.03867188 -2.54296875 1.078125 C-18.34472205 1.82333094 -46.26428705 3.26428705 -58 15 C-59.94828085 15.46230393 -61.89685311 15.92345786 -63.84765625 16.375 C-68.43628383 17.70745084 -72.19957882 20.4557136 -76.125 23.125 C-79 25 -79 25 -81.8125 26.0625 C-82.534375 26.371875 -83.25625 26.68125 -84 27 C-84.495 28.485 -84.495 28.485 -85 30 C-88.44444444 33 -88.44444444 33 -91 33 C-91 33.66 -91 34.32 -91 35 C-93.5625 35.875 -93.5625 35.875 -97 36 C-100.39961356 33.88712189 -103.07417598 30.99891539 -105.78125 28.078125 C-108.57123611 25.46496899 -111.65341858 23.46552312 -114.875 21.4375 C-115.47441406 21.05142578 -116.07382812 20.66535156 -116.69140625 20.26757812 C-120.35810532 17.93313956 -124.07312934 15.87937388 -128 14 C-128 13.34 -128 12.68 -128 12 C-117.84470089 15.01010363 -109.12198228 21.5628413 -101.12109375 28.3359375 C-99.14487633 29.88634012 -97.28391553 30.97456854 -95 32 C-94.54753906 31.53851563 -94.09507812 31.07703125 -93.62890625 30.6015625 C-88.59528303 25.78679246 -83.22139524 22.0892215 -77.25 18.5625 C-76.51724854 18.12566895 -75.78449707 17.68883789 -75.02954102 17.23876953 C-71.31167583 15.09232939 -68.27501895 13.70978368 -64 13 C-63.67 12.34 -63.34 11.68 -63 11 C-43.2252565 1.75255587 -21.51520593 -0.8023456 0 0 Z " fill="#5B4029" transform="translate(741,136)"/>
<path d="M0 0 C0.66 0 1.32 0 2 0 C2.04667168 18.21918142 2.08196509 36.43834738 2.10362434 54.65757561 C2.11394735 63.11662669 2.12802718 71.57564069 2.15087891 80.03466797 C2.17078151 87.40551532 2.18370898 94.77633581 2.18817699 102.14720929 C2.1907897 106.05187689 2.1969518 109.95646765 2.21146011 113.86111069 C2.22499466 117.53329672 2.22923106 121.20537395 2.22621536 124.87758255 C2.22703138 126.87392816 2.23781455 128.87026182 2.24884033 130.86657715 C2.246091 132.04730804 2.24334167 133.22803894 2.24050903 134.44454956 C2.24235262 135.47511412 2.24419621 136.50567867 2.24609566 137.56747246 C2 140 2 140 0 142 C-2.06298828 142.22705078 -2.06298828 142.22705078 -4.5703125 142.1953125 C-5.46621094 142.18886719 -6.36210938 142.18242187 -7.28515625 142.17578125 C-8.69087891 142.15064453 -8.69087891 142.15064453 -10.125 142.125 C-11.06988281 142.11597656 -12.01476562 142.10695313 -12.98828125 142.09765625 C-15.32577292 142.07404522 -17.66276123 142.04111516 -20 142 C-20 141.34 -20 140.68 -20 140 C-18.87980469 139.96261719 -17.75960937 139.92523438 -16.60546875 139.88671875 C-15.1327791 139.82105743 -13.66012434 139.75461014 -12.1875 139.6875 C-11.44951172 139.66494141 -10.71152344 139.64238281 -9.95117188 139.61914062 C-5.89131837 139.48005656 -5.89131837 139.48005656 -2.28785992 137.81325817 C-0.50238345 135.29937467 -0.61542605 133.54745364 -0.60127258 130.47615051 C-0.58873444 129.32770157 -0.57619629 128.17925262 -0.5632782 126.9960022 C-0.56471329 125.73508759 -0.56614838 124.47417297 -0.56762695 123.17504883 C-0.55861148 121.83471267 -0.54828479 120.49438478 -0.53674316 119.15406799 C-0.50912135 115.51384421 -0.4998817 111.87377664 -0.49388909 108.23346162 C-0.48451882 104.42972237 -0.45831659 100.62610042 -0.43388367 96.82243347 C-0.39017776 89.61894884 -0.361656 82.41548692 -0.33856028 75.21190995 C-0.31153048 67.01120358 -0.26761766 58.81061498 -0.22227156 50.60999262 C-0.12936673 33.74005567 -0.0577128 16.87009329 0 0 Z " fill="#593B22" transform="translate(759,174)"/>
<path d="M0 0 C2.64 0 5.28 0 8 0 C7.67 0.66 7.34 1.32 7 2 C5.68 2 4.36 2 3 2 C3.00261841 3.05024857 3.00523682 4.10049713 3.00793457 5.18257141 C3.07164869 33.50412876 2.87772498 61.81735528 2.53643799 90.13671875 C2.47426972 95.34177561 2.41502078 100.54686579 2.35546875 105.75195312 C2.23970961 115.83466846 2.12092673 125.9173454 2 136 C1.34 136.33 0.68 136.66 0 137 C0 91.79 0 46.58 0 0 Z " fill="#F3ECDC" transform="translate(556,149)"/>
<path d="M0 0 C67.3979335 -1.95705413 67.3979335 -1.95705413 87 14 C86.34 14.66 85.68 15.32 85 16 C85 15.34 85 14.68 85 14 C83.6078125 14.08507812 83.6078125 14.08507812 82.1875 14.171875 C76.92379791 14.1666113 72.05137463 12.59727418 67 11.25 C47.7228666 6.37845458 27.60686977 3.59712177 7.7097168 3.41479492 C5.48046875 3.37109375 5.48046875 3.37109375 2 3 C1.34 2.01 0.68 1.02 0 0 Z " fill="#705338" transform="translate(532,314)"/>
<path d="M0 0 C4.29 0 8.58 0 13 0 C13 0.66 13 1.32 13 2 C9.78548731 3.60725635 6.56387464 3.05748185 3 3 C2.99761165 3.64145116 2.99522329 4.28290232 2.99276257 4.94379139 C2.93366078 20.54214275 2.85814195 36.14031476 2.76428509 51.73849201 C2.71929392 59.28162045 2.67988703 66.82470133 2.65356445 74.36791992 C2.63061113 80.94157469 2.59724327 87.51507934 2.55129844 94.08861512 C2.52732992 97.57020601 2.50862507 101.05164791 2.50238609 104.53331947 C2.49523123 108.4173174 2.46482792 112.30094132 2.43237305 116.18481445 C2.43380814 117.34287094 2.43524323 118.50092743 2.4367218 119.69407654 C2.42418365 120.74996979 2.41164551 121.80586304 2.39872742 122.89375305 C2.39411845 123.81278066 2.38950949 124.73180826 2.38476086 125.67868519 C2 128 2 128 0.67429829 129.80742168 C-1.82685528 131.58895699 -4.02058576 131.19862762 -7 131 C-6 129 -6 129 -3.47745228 127.69651318 C-0.79756018 126.25520714 -0.79756018 126.25520714 -0.36914349 123.66306782 C-0.36637811 122.73666587 -0.36361273 121.81026392 -0.36076355 120.85578918 C-0.34547607 119.79148178 -0.3301886 118.72717438 -0.31443787 117.63061523 C-0.32306351 116.46320801 -0.33168915 115.29580078 -0.34057617 114.09301758 C-0.32485062 112.24893562 -0.32485062 112.24893562 -0.30880737 110.36759949 C-0.28492023 106.99553349 -0.2831394 103.62480364 -0.29110122 100.25275254 C-0.29422245 96.72925281 -0.26920333 93.20595677 -0.24714661 89.68254089 C-0.209665 83.01023625 -0.19755621 76.33813542 -0.1945222 69.6657359 C-0.1898358 62.0695819 -0.15692605 54.47363265 -0.12162435 46.87756884 C-0.0496387 31.25172096 -0.0141661 15.62601316 0 0 Z " fill="#F5EEE0" transform="translate(745,170)"/>
<path d="M0 0 C2 1 2 1 2.609375 2.6796875 C4.91762086 16.39066788 1.02932337 28.32050886 -6 40 C-13.75146503 50.83639151 -24.39534489 57.21860347 -37 61 C-38.33709827 63.67419654 -38.17896074 65.82157735 -38.24609375 68.8125 C-38.27896484 69.97007812 -38.31183594 71.12765625 -38.34570312 72.3203125 C-38.40689869 74.77334322 -38.46419079 77.22647442 -38.51757812 79.6796875 C-38.55173828 80.83726562 -38.58589844 81.99484375 -38.62109375 83.1875 C-38.6461499 84.25355469 -38.67120605 85.31960938 -38.69702148 86.41796875 C-39 89 -39 89 -41 91 C-41 80.11 -41 69.22 -41 58 C-37.04 56.68 -33.08 55.36 -29 54 C-16.35114785 47.92855097 -8.3062244 39.46475856 -2.9375 26.41796875 C-0.22001215 17.91275436 -0.28243377 8.85283773 0 0 Z " fill="#F7EADA" transform="translate(692,230)"/>
<path d="M0 0 C0 0.66 0 1.32 0 2 C-4.78888498 0.5868864 -9.56175731 -0.84510087 -14.296875 -2.4296875 C-28.52617309 -7.15396897 -41.89112345 -10.21824977 -56.9375 -10.3125 C-57.80882568 -10.31813965 -58.68015137 -10.3237793 -59.57788086 -10.32958984 C-64.27255559 -10.4833383 -64.27255559 -10.4833383 -68 -8 C-68.36894582 -5.96939341 -68.36894582 -5.96939341 -68.4140625 -3.6484375 C-68.45273437 -2.79765625 -68.49140625 -1.946875 -68.53125 -1.0703125 C-68.57765625 0.26386719 -68.57765625 0.26386719 -68.625 1.625 C-68.66367187 2.5221875 -68.70234375 3.419375 -68.7421875 4.34375 C-68.83659357 6.5622927 -68.92216748 8.78082403 -69 11 C-69.91289795 10.98952637 -70.8257959 10.97905273 -71.76635742 10.96826172 C-75.16758775 10.93408719 -78.56863442 10.90905616 -81.9699707 10.89013672 C-83.43940112 10.88010648 -84.90881171 10.86647899 -86.37817383 10.84912109 C-88.49565537 10.82474102 -90.61287199 10.81348714 -92.73046875 10.8046875 C-94.63928833 10.78897705 -94.63928833 10.78897705 -96.58666992 10.77294922 C-99.85835171 10.99057772 -102.06957366 11.58497375 -105 13 C-104.1875 11.0625 -104.1875 11.0625 -103 9 C-99.64264863 7.88088288 -97.11794614 7.88634414 -93.58203125 7.90234375 C-92.32841797 7.90556641 -91.07480469 7.90878906 -89.78320312 7.91210938 C-87.81770508 7.92467773 -87.81770508 7.92467773 -85.8125 7.9375 C-84.47721519 7.94251683 -83.14192859 7.94707941 -81.80664062 7.95117188 C-78.53771527 7.96297305 -75.26888009 7.97943703 -72 8 C-71.96261719 6.73542969 -71.92523437 5.47085938 -71.88671875 4.16796875 C-71.82106167 2.5077827 -71.75461424 0.84762778 -71.6875 -0.8125 C-71.66494141 -1.64587891 -71.64238281 -2.47925781 -71.61914062 -3.33789062 C-71.58369141 -4.14033203 -71.54824219 -4.94277344 -71.51171875 -5.76953125 C-71.47244263 -6.87711792 -71.47244263 -6.87711792 -71.43237305 -8.00708008 C-70.87871337 -10.55904167 -70.07100804 -11.43519259 -68 -13 C-49.5388231 -19.95702052 -17.00366147 -8.50183073 0 0 Z " fill="#331704" transform="translate(613,147)"/>
<path d="M0 0 C1.02577148 0.00676758 1.02577148 0.00676758 2.07226562 0.01367188 C3.73571604 0.0253044 5.3991205 0.04323306 7.0625 0.0625 C7.0625 0.7225 7.0625 1.3825 7.0625 2.0625 C5.52529297 2.22685547 5.52529297 2.22685547 3.95703125 2.39453125 C2.59628133 2.55406745 1.23560806 2.7142584 -0.125 2.875 C-0.79853516 2.94525391 -1.47207031 3.01550781 -2.16601562 3.08789062 C-5.26031796 3.46524457 -7.63601253 3.87883522 -10.31640625 5.51171875 C-14.20176086 7.81050531 -18.27725122 8.29266368 -22.6875 9.0625 C-28.69610238 10.1302938 -34.32679165 11.380917 -40.03613281 13.57421875 C-41.9375 14.0625 -41.9375 14.0625 -44.9375 13.0625 C-45.625 11 -45.625 11 -45.9375 9.0625 C-38.54910104 6.60840282 -31.15909723 4.559647 -23.5625 2.875 C-22.44029053 2.62508301 -22.44029053 2.62508301 -21.29541016 2.37011719 C-14.15415408 0.82202384 -7.3334849 -0.0648981 0 0 Z " fill="#5F442C" transform="translate(721.9375,314.9375)"/>
<path d="M0 0 C23.60090199 -1.90329855 52.66201216 12.93798632 70.33984375 27.69921875 C72.62839715 29.74383098 74.84951764 31.81169509 77 34 C73.01999047 34 71.70017664 32.51763809 68.5625 30.125 C65.46144111 27.77072672 62.55960492 25.59887692 59 24 C59 23.34 59 22.68 59 22 C58.14664063 21.73316406 57.29328125 21.46632813 56.4140625 21.19140625 C51.78238753 19.57508947 47.44747124 17.44873629 43.0234375 15.33984375 C40.63683679 14.28221579 38.54457029 13.50270779 36 13 C36 12.34 36 11.68 36 11 C34.515 10.8453125 34.515 10.8453125 33 10.6875 C27.58417912 9.91225145 22.7458261 7.87291305 17.875 5.4375 C12.32154572 2.96640793 5.97459112 2.7043554 0 2 C0 1.34 0 0.68 0 0 Z " fill="#6C5035" transform="translate(558,288)"/>
<path d="M0 0 C0.66 0.33 1.32 0.66 2 1 C2 5.62 2 10.24 2 15 C0.7625 15.20625 -0.475 15.4125 -1.75 15.625 C-14.42930319 18.51118362 -25.47517161 25.98344107 -32.4375 37 C-39.67216513 50.1613682 -39.97892114 62.33847077 -36.94921875 76.765625 C-36.0194986 79.93356032 -34.75413684 82.22875861 -33 85 C-33 85.66 -33 86.32 -33 87 C-33.66 87 -34.32 87 -35 87 C-35.82011312 85.44148245 -36.63076213 83.87798284 -37.4375 82.3125 C-37.88996094 81.44238281 -38.34242188 80.57226562 -38.80859375 79.67578125 C-41.28620184 74.11131717 -41.18283758 68.67870469 -41.1875 62.6875 C-41.19974609 61.87087891 -41.21199219 61.05425781 -41.22460938 60.21289062 C-41.25657652 46.83996638 -36.28724074 35.611436 -27 26 C-26.01 25.67 -25.02 25.34 -24 25 C-23.67 24.01 -23.34 23.02 -23 22 C-15.98757656 16.2641524 -7.86372858 13.79140434 1 13 C0.67 8.71 0.34 4.42 0 0 Z " fill="#CFB094" transform="translate(634,178)"/>
<path d="M0 0 C0 0.66 0 1.32 0 2 C-0.78375 2.61875 -1.5675 3.2375 -2.375 3.875 C-5.01934635 6.01566133 -5.83011582 6.90778764 -7 10 C-7.31058572 12.93153664 -7.31058572 12.93153664 -7.2784729 16.21356201 C-7.28963638 17.48959793 -7.30079987 18.76563385 -7.31230164 20.08033752 C-7.31466653 21.49203462 -7.31684219 22.90373204 -7.31884766 24.31542969 C-7.32814695 25.80369105 -7.33831562 27.29194719 -7.34928894 28.78019714 C-7.37660298 32.8190766 -7.39174249 36.85792115 -7.40471697 40.89686871 C-7.42034136 45.11831862 -7.44713379 49.3396972 -7.4727478 53.56109619 C-7.51954784 61.55431998 -7.55628602 69.54755717 -7.58942068 77.54084802 C-7.62763341 86.64117445 -7.67704579 95.74142925 -7.72740483 104.84169531 C-7.8307429 123.56107779 -7.91999721 142.28050398 -8 161 C-8.33 161 -8.66 161 -9 161 C-9.17723668 140.85968278 -9.34291061 120.71930222 -9.49477577 100.57877731 C-9.56555786 91.22743128 -9.64014004 81.87614424 -9.72363281 72.52490234 C-9.79638559 64.37547093 -9.86204451 56.22601872 -9.91914403 48.07646203 C-9.94963361 43.76033901 -9.98370298 39.44431053 -10.02626419 35.12828827 C-10.06620036 31.06710682 -10.09666124 27.00596522 -10.11981392 22.94465446 C-10.12999497 21.45307802 -10.14365623 19.9615207 -10.16103554 18.47001076 C-10.18422731 16.43523145 -10.19374363 14.40030991 -10.20254517 12.36541748 C-10.2117631 11.22608135 -10.22098103 10.08674522 -10.23047829 8.91288376 C-10.00076921 6.00972161 -9.6601388 4.37437137 -8 2 C-5.2520429 0.85501787 -2.989803 0 0 0 Z " fill="#4A301C" transform="translate(515,157)"/>
<path d="M0 0 C-2.6209815 3.2365857 -5.54283548 4.04901352 -9.4375 5.3125 C-17.81788563 8.18701569 -25.95493101 11.5288294 -33 17 C-33.9075 17.556875 -34.815 18.11375 -35.75 18.6875 C-39.97631981 21.6946891 -43.41536829 25.27004538 -47 29 C-47.66 29.66 -48.32 30.32 -49 31 C-49.43359375 27.8671875 -49.43359375 27.8671875 -49 24 C-47.05874237 21.53380651 -44.63643966 19.89145836 -42.0625 18.125 C-41.34900391 17.61396729 -40.63550781 17.10293457 -39.90039062 16.57641602 C-28.47112706 8.59361848 -14.3313795 -0.76775247 0 0 Z " fill="#F1EADC" transform="translate(700,155)"/>
<path d="M0 0 C2.49118953 3.7367843 2.2065226 5.74451819 2.125 10.1875 C2.10695313 11.45980469 2.08890625 12.73210937 2.0703125 14.04296875 C2.03550781 15.50669922 2.03550781 15.50669922 2 17 C2.85231201 16.97905273 3.70462402 16.95810547 4.58276367 16.93652344 C7.76029433 16.86814756 10.93744871 16.81810262 14.11547852 16.78027344 C15.48800023 16.7602201 16.86043717 16.73296972 18.23266602 16.69824219 C20.21072044 16.64945448 22.18941119 16.62911124 24.16796875 16.609375 C25.35672607 16.58842773 26.5454834 16.56748047 27.77026367 16.54589844 C31.67274403 17.09458794 33.26983792 18.20024616 36 21 C37.3125 24.75 37.3125 24.75 38 28 C37.01 28.495 37.01 28.495 36 29 C35.34 26.36 34.68 23.72 34 21 C33.28980713 21.01047363 32.57961426 21.02094727 31.84790039 21.03173828 C28.58613721 21.07367486 25.32443104 21.09944486 22.0625 21.125 C20.94552734 21.14175781 19.82855469 21.15851563 18.67773438 21.17578125 C12.11022104 21.21430039 6.34660678 20.70947839 0 19 C-0.1938211 16.02111874 -0.38035102 13.04209754 -0.5625 10.0625 C-0.61857422 9.21236328 -0.67464844 8.36222656 -0.73242188 7.48632812 C-0.80493164 6.27299805 -0.80493164 6.27299805 -0.87890625 5.03515625 C-0.9260376 4.2862915 -0.97316895 3.53742676 -1.02172852 2.76586914 C-1 1 -1 1 0 0 Z " fill="#452C17" transform="translate(744,138)"/>
<path d="M0 0 C-1.84757913 1.84757913 -4.88411497 1.28516453 -7.3671875 1.39453125 C-8.72855467 1.460544 -10.08988143 1.52739412 -11.45117188 1.5949707 C-12.53289673 1.64725327 -12.53289673 1.64725327 -13.63647461 1.70059204 C-34.4401555 2.74060592 -55.18056592 4.47043754 -75.03515625 11.14453125 C-78 12 -78 12 -80 11 C-67.66883187 4.36495522 -58.98585443 2.64189846 -45 3 C-45 2.34 -45 1.68 -45 1 C-36.92101566 0.06261539 -28.86161131 -0.31087719 -20.73852539 -0.55761719 C-18.5422137 -0.62562819 -16.34636643 -0.70321421 -14.15039062 -0.78125 C-12.74741415 -0.82609742 -11.34441976 -0.87038885 -9.94140625 -0.9140625 C-8.68013916 -0.9548291 -7.41887207 -0.9955957 -6.11938477 -1.03759766 C-3 -1 -3 -1 0 0 Z " fill="#CBB79B" transform="translate(757,312)"/>
<path d="M0 0 C-2.15184988 2.40998805 -3.87886683 3.53668252 -6.94140625 4.53515625 C-7.68970703 4.78716797 -8.43800781 5.03917969 -9.20898438 5.29882812 C-9.98564453 5.55083984 -10.76230469 5.80285156 -11.5625 6.0625 C-13.10722144 6.56890331 -14.65028403 7.08040298 -16.19140625 7.59765625 C-17.21536499 7.93035522 -17.21536499 7.93035522 -18.26000977 8.26977539 C-20.21229161 8.96003596 -20.21229161 8.96003596 -22 11 C-22.7425 11.28875 -23.485 11.5775 -24.25 11.875 C-27.49260998 13.20152227 -30.1288887 15.00270518 -33 17 C-33.99 17.66 -34.98 18.32 -36 19 C-35.26481791 14.19467937 -32.43533552 12.14531816 -28.8671875 9.1015625 C-21.19643516 3.47913095 -9.79950048 -3.67481268 0 0 Z " fill="#AC5744" transform="translate(641,193)"/>
<path d="M0 0 C13.84233305 -0.83053998 27.14276501 4.49559455 40 9 C40 9.66 40 10.32 40 11 C40.86625 11.0825 41.7325 11.165 42.625 11.25 C46.51107778 12.11357284 48.88500021 13.55250016 52 16 C52 16.66 52 17.32 52 18 C47.60129091 16.6169375 43.37738055 14.94626607 39.12304688 13.18212891 C26.00444488 7.76607755 13.09873443 3.99535161 -1 2 C-0.67 1.34 -0.34 0.68 0 0 Z " fill="#CDBBA1" transform="translate(557,285)"/>
<path d="M0 0 C13.22000386 -0.29556303 26.31517338 -0.45506038 39.4375 1.375 C40.34709473 1.50108643 41.25668945 1.62717285 42.19384766 1.75708008 C46.20834431 2.37265671 49.40590152 3.03774266 53 5 C49.68478712 6.10507096 48.00607509 5.91479244 44.57421875 5.4765625 C43.47698486 5.34290283 42.37975098 5.20924316 41.24926758 5.0715332 C40.07388428 4.92417725 38.89850098 4.77682129 37.6875 4.625 C25.45741109 3.16666739 13.30720297 2.36087855 1 2 C0.67 1.34 0.34 0.68 0 0 Z " fill="#5C4026" transform="translate(534,314)"/>
<path d="M0 0 C1.42788133 2.85576267 0.64002667 4.69083625 0.0625 7.8125 C-1.78201343 19.28385747 -2.84674561 32.46061794 3.72265625 42.6796875 C5.4158666 44.85617555 7.1856778 46.92515974 9 49 C9.33 49.66 9.66 50.32 10 51 C6.74861592 49.61956322 5.06240748 48.16512338 3 45.3125 C2.525625 44.66925781 2.05125 44.02601563 1.5625 43.36328125 C1.046875 42.58339844 0.53125 41.80351562 0 41 C-0.71285156 39.989375 -1.42570313 38.97875 -2.16015625 37.9375 C-4.87922867 33.09127532 -4.5465857 28.1101151 -4.4375 22.6875 C-4.44458984 21.70587891 -4.45167969 20.72425781 -4.45898438 19.71289062 C-4.32660735 4.32660735 -4.32660735 4.32660735 0 0 Z " fill="#D07560" transform="translate(601,224)"/>
<path d="M0 0 C10.1632603 0.17522863 20.16892772 4.74607421 27.375 11.9375 C28.27016271 12.94069959 29.15467244 13.95446329 30 15 C29.67 15.66 29.34 16.32 29 17 C28.319375 16.236875 27.63875 15.47375 26.9375 14.6875 C22.11295887 10.27355811 16.30997319 8.75259393 10.21875 6.75 C7.01600221 5.66738103 4.02904572 4.51452286 1 3 C0.67 2.01 0.34 1.02 0 0 Z " fill="#DC7965" transform="translate(651,193)"/>
<path d="M0 0 C-0.66 0.99 -1.32 1.98 -2 3 C-4.07421875 3.22265625 -4.07421875 3.22265625 -6.6875 3.0625 C-20.99308631 2.70904598 -36.705519 5.62512933 -50 11 C-52.8125 11.125 -52.8125 11.125 -55 11 C-53.67741528 10.31225595 -52.34013497 9.65288627 -51 9 C-49.5459375 8.2884375 -49.5459375 8.2884375 -48.0625 7.5625 C-42.59942641 5.25432241 -36.77807187 4.22870667 -31 3 C-29.80761719 2.71769531 -28.61523438 2.43539062 -27.38671875 2.14453125 C-18.09942424 0.05562552 -9.45076937 -0.33530982 0 0 Z " fill="#71543B" transform="translate(742,137)"/>
<path d="M0 0 C0.78375 0.185625 1.5675 0.37125 2.375 0.5625 C4.97089775 1.25962266 4.97089775 1.25962266 7 0 C8.6730957 0.64575195 8.6730957 0.64575195 10.67578125 1.73828125 C11.41562256 2.14159668 12.15546387 2.54491211 12.91772461 2.96044922 C13.70800049 3.40662598 14.49827637 3.85280273 15.3125 4.3125 C16.1176001 4.76383301 16.9227002 5.21516602 17.75219727 5.68017578 C26.07580205 10.4523428 35.55178414 15.91078458 41 24 C36.78296207 22.04766762 33.19721146 19.36140825 29.4375 16.65625 C27.33742894 15.22927864 25.29909181 14.06439436 23 13 C23 12.34 23 11.68 23 11 C22.14664063 10.73316406 21.29328125 10.46632813 20.4140625 10.19140625 C15.78238753 8.57508947 11.44747124 6.44873629 7.0234375 4.33984375 C4.63683679 3.28221579 2.54457029 2.50270779 0 2 C0 1.34 0 0.68 0 0 Z " fill="#6E5438" transform="translate(594,299)"/>
<path d="M0 0 C0.66 0.33 1.32 0.66 2 1 C-1.42589114 4.74706844 -4.85275069 7.22289033 -9.21875 9.796875 C-11.18438284 10.97054488 -11.18438284 10.97054488 -12.625 13.3125 C-13.305625 14.1478125 -13.305625 14.1478125 -14 15 C-17.1875 15.25 -17.1875 15.25 -20 15 C-20 11 -20 11 -18 8.75 C-17.34 8.1725 -16.68 7.595 -16 7 C-15.01 7.33 -14.02 7.66 -13 8 C-10.78620924 6.86428054 -10.78620924 6.86428054 -8.5625 5.1875 C-2.93178354 1.17644817 -2.93178354 1.17644817 0 0 Z " fill="#5F412B" transform="translate(673,310)"/>
<path d="M0 0 C10.15529911 3.01010363 18.87801772 9.5628413 26.87890625 16.3359375 C28.85512367 17.88634012 30.71608447 18.97456854 33 20 C35.475 17.525 35.475 17.525 38 15 C38.66 15.33 39.32 15.66 40 16 C37.77488652 19.47117702 36.56314796 20.82593608 32.5625 22.0625 C28.19180521 21.98582114 27.04372738 21.04372738 24 18 C23.43410156 17.38640625 22.86820313 16.7728125 22.28515625 16.140625 C19.4706557 13.50413559 16.37493866 11.48337434 13.125 9.4375 C12.52558594 9.05142578 11.92617188 8.66535156 11.30859375 8.26757812 C7.64189468 5.93313956 3.92687066 3.87937388 0 2 C0 1.34 0 0.68 0 0 Z " fill="#503217" transform="translate(613,148)"/>
<path d="M0 0 C0 0.99 0 1.98 0 3 C-4.40270349 4.5757756 -8.71618172 5.59269384 -13.3125 6.4375 C-21.78452405 8.06641757 -29.25118696 10.45414864 -36.95703125 14.328125 C-39.37765281 15.1241994 -40.62896825 14.83119315 -43 14 C-40.07501082 12.01855572 -37.24293087 10.668948 -33.90234375 9.58984375 C-33.10626709 9.33082275 -32.31019043 9.07180176 -31.48999023 8.80493164 C-30.66829346 8.5393042 -29.84659668 8.27367676 -29 8 C-27.42701936 7.47675477 -25.85410227 6.95331848 -24.28125 6.4296875 C-22.68774957 5.91069145 -21.09399846 5.39246443 -19.5 4.875 C-18.70980469 4.61074219 -17.91960938 4.34648437 -17.10546875 4.07421875 C-11.70369706 2.33256732 -6.64588988 1.54458387 -1 1 C-0.67 0.67 -0.34 0.34 0 0 Z " fill="#73543A" transform="translate(733,288)"/>
<path d="M0 0 C-0.76441406 0.17015625 -1.52882813 0.3403125 -2.31640625 0.515625 C-9.79797787 2.20820679 -17.19748456 4.09299574 -24.58984375 6.1328125 C-27.71987235 6.92876479 -30.80772111 7.52237659 -34 8 C-34.33 6.35 -34.66 4.7 -35 3 C-32.1906828 1.5953414 -30.6135817 0.86926797 -27.48828125 1.53515625 C-22.59086443 2.18777954 -18.15829755 1.3059677 -13.3125 0.5 C-11.43463908 0.19148517 -9.55575495 -0.11088258 -7.67578125 -0.40625 C-6.84989502 -0.54353516 -6.02400879 -0.68082031 -5.1730957 -0.82226562 C-3 -1 -3 -1 0 0 Z " fill="#73553C" transform="translate(711,321)"/>
<path d="M0 0 C0.33 0 0.66 0 1 0 C1 10.89 1 21.78 1 33 C-2.90432869 31.04783565 -5.03839944 29.12613393 -8 26 C-3.125 26.875 -3.125 26.875 -2 28 C-1.96241577 26.78098999 -1.96241577 26.78098999 -1.92407227 25.53735352 C-1.80850882 21.87889248 -1.68560416 18.22071472 -1.5625 14.5625 C-1.52318359 13.28310547 -1.48386719 12.00371094 -1.44335938 10.68554688 C-1.40146484 9.47060547 -1.35957031 8.25566406 -1.31640625 7.00390625 C-1.26141968 5.31503296 -1.26141968 5.31503296 -1.20532227 3.59204102 C-1 1 -1 1 0 0 Z " fill="#D9CAAE" transform="translate(635,289)"/>
<path d="M0 0 C4.98045424 -0.04974332 9.96076121 -0.08588098 14.94140625 -0.10986328 C16.63283816 -0.11986984 18.32425299 -0.13347931 20.015625 -0.15087891 C22.45837642 -0.17536403 24.90089749 -0.18653672 27.34375 -0.1953125 C28.08991577 -0.20563507 28.83608154 -0.21595764 29.6048584 -0.22659302 C34.71195154 -0.22766432 39.08611717 0.59672714 44 2 C44 2.66 44 3.32 44 4 C29.48 3.01 14.96 2.02 0 1 C0 0.67 0 0.34 0 0 Z " fill="#C5B196" transform="translate(531,312)"/>
<path d="M0 0 C6.62225524 0.3071408 12.51915556 2.28606215 18.75 4.4375 C19.68199219 4.75009766 20.61398437 5.06269531 21.57421875 5.38476562 C25.52239405 6.72442625 29.30095155 8.06101682 33 10 C33 10.66 33 11.32 33 12 C28.08828647 10.55064191 23.19169866 9.06758052 18.31640625 7.5 C17.06790894 7.09998779 17.06790894 7.09998779 15.79418945 6.69189453 C14.12103381 6.15467365 12.44895744 5.61407769 10.77807617 5.06982422 C6.53040314 3.70851864 2.43972175 2.58718901 -2 2 C-1.34 1.34 -0.68 0.68 0 0 Z " fill="#432008" transform="translate(580,137)"/>
<path d="M0 0 C-3.91319773 4.32511328 -8.75700439 5.87983952 -14.5 6.1875 C-15.325 6.125625 -16.15 6.06375 -17 6 C-17 5.34 -17 4.68 -17 4 C-17.66 3.67 -18.32 3.34 -19 3 C-13.09339764 0.16975304 -6.5325053 -2.44968949 0 0 Z " fill="#AC5945" transform="translate(641,193)"/>
<path d="M0 0 C3.9166043 -0.0580966 7.83309763 -0.09362893 11.75 -0.125 C12.86117187 -0.14175781 13.97234375 -0.15851563 15.1171875 -0.17578125 C16.72207031 -0.18544922 16.72207031 -0.18544922 18.359375 -0.1953125 C19.34389648 -0.20578613 20.32841797 -0.21625977 21.34277344 -0.22705078 C24.05973111 0.00510382 25.68112513 0.60963727 28 2 C27.23856689 2.01458252 26.47713379 2.02916504 25.69262695 2.04418945 C22.23208112 2.11880541 18.77248555 2.21542259 15.3125 2.3125 C14.11431641 2.33505859 12.91613281 2.35761719 11.68164062 2.38085938 C9.94624023 2.4340332 9.94624023 2.4340332 8.17578125 2.48828125 C7.11270752 2.51446533 6.04963379 2.54064941 4.9543457 2.56762695 C1.61928064 3.05571887 -0.24772988 4.09498647 -3 6 C-3.99 6.66 -4.98 7.32 -6 8 C-4.95125002 5.37812506 -4.35068687 4.20628639 -1.875 2.75 C-1.25625 2.5025 -0.6375 2.255 0 2 C0 1.34 0 0.68 0 0 Z " fill="#5F432C" transform="translate(515,157)"/>
<path d="M0 0 C1.14533203 -0.01224609 2.29066406 -0.02449219 3.47070312 -0.03710938 C5.12295898 -0.04000977 5.12295898 -0.04000977 6.80859375 -0.04296875 C8.31957642 -0.04913208 8.31957642 -0.04913208 9.86108398 -0.05541992 C12.59419002 0.19034967 14.23047046 0.78633863 16.5625 2.1875 C15.71018799 2.20731934 14.85787598 2.22713867 13.97973633 2.24755859 C10.80191676 2.32589504 7.62446418 2.41259665 4.44702148 2.50488281 C3.07471419 2.54304288 1.70231129 2.57791796 0.32983398 2.609375 C-1.6488229 2.65530682 -3.62716442 2.71423637 -5.60546875 2.7734375 C-7.38860474 2.82056885 -7.38860474 2.82056885 -9.20776367 2.86865234 C-12.33591328 3.1774711 -14.60863759 3.8581912 -17.4375 5.1875 C-16.625 3.25 -16.625 3.25 -15.4375 1.1875 C-10.43837135 -0.47887622 -5.23363749 0.0029353 0 0 Z " fill="#2C1101" transform="translate(525.4375,154.8125)"/>
<path d="M0 0 C1.30469238 0.00773438 1.30469238 0.00773438 2.63574219 0.015625 C3.52229492 0.01691406 4.40884766 0.01820313 5.32226562 0.01953125 C13.94538806 0.14249913 22.16641903 1.49866089 30.57324219 3.328125 C30.57324219 3.658125 30.57324219 3.988125 30.57324219 4.328125 C24.97633046 4.52298846 19.69572817 4.47782015 14.19824219 3.328125 C8.08849425 2.11670946 1.75861401 1.36012251 -4.42675781 2.328125 C-7.27560782 4.22831313 -7.27560782 4.22831313 -9.42675781 6.328125 C-8.23365927 0.36263229 -5.87318953 0.06543944 0 0 Z " fill="#5F432C" transform="translate(553.4267578125,135.671875)"/>
<path d="M0 0 C0.66 0.33 1.32 0.66 2 1 C1.16855469 1.78503906 0.33710937 2.57007813 -0.51953125 3.37890625 C-1.6177215 4.43955154 -2.71534797 5.50078079 -3.8125 6.5625 C-4.35970703 7.07619141 -4.90691406 7.58988281 -5.47070312 8.11914062 C-9.27210291 11.82838526 -11.06868044 15.071175 -13 20 C-13.66 20.33 -14.32 20.66 -15 21 C-14.0267366 15.64705129 -13.04378993 10.5656849 -10 6 C-9.34 6 -8.68 6 -8 6 C-7.566875 5.566875 -7.13375 5.13375 -6.6875 4.6875 C-4.64140446 2.64140446 -2.57063471 1.31827421 0 0 Z " fill="#BA5E4B" transform="translate(615,204)"/>
<path d="M0 0 C0.66 0.33 1.32 0.66 2 1 C1.34 1.66 0.68 2.32 0 3 C-0.36894582 5.03060659 -0.36894582 5.03060659 -0.4140625 7.3515625 C-0.47207031 8.62773437 -0.47207031 8.62773437 -0.53125 9.9296875 C-0.5621875 10.81914062 -0.593125 11.70859375 -0.625 12.625 C-0.66367187 13.5221875 -0.70234375 14.419375 -0.7421875 15.34375 C-0.83659357 17.5622927 -0.92216748 19.78082403 -1 22 C-2.65 22 -4.3 22 -6 22 C-6.33 21.01 -6.66 20.02 -7 19 C-6.01 19 -5.02 19 -4 19 C-3.505 10.09 -3.505 10.09 -3 1 C-2.01 0.67 -1.02 0.34 0 0 Z " fill="#432B17" transform="translate(545,136)"/>
<path d="M0 0 C-0.59167969 0.32613281 -1.18335938 0.65226563 -1.79296875 0.98828125 C-6.96408254 3.84799997 -12.08040716 6.72027144 -17 10 C-19.26171875 10.4140625 -19.26171875 10.4140625 -21.6875 10.625 C-22.49574219 10.69976562 -23.30398438 10.77453125 -24.13671875 10.8515625 C-25.05904297 10.92503906 -25.05904297 10.92503906 -26 11 C-22.18209968 7.52918153 -18.93818359 6.32951097 -14 5 C-13.67 4.34 -13.34 3.68 -13 3 C-10.56640625 1.89453125 -10.56640625 1.89453125 -7.5625 0.8125 C-6.57378906 0.44769531 -5.58507812 0.08289063 -4.56640625 -0.29296875 C-2 -1 -2 -1 0 0 Z " fill="#563B25" transform="translate(691,144)"/>
<path d="M0 0 C0.33 0 0.66 0 1 0 C1.33 10.23 1.66 20.46 2 31 C3.65 29.68 5.3 28.36 7 27 C7 27.99 7 28.98 7 30 C4.69 31.98 2.38 33.96 0 36 C0 24.12 0 12.24 0 0 Z " fill="#D6C7B4" transform="translate(650,288)"/>
<path d="M0 0 C6.33513864 -0.53662351 11.96426023 0.25735246 18.0625 1.875 C18.72967041 2.04870117 19.39684082 2.22240234 20.08422852 2.40136719 C21.74357396 2.86559777 23.37548046 3.42565374 25 4 C25.33 4.66 25.66 5.32 26 6 C20.87911253 6.41520709 16.68894787 5.1437424 11.8359375 3.734375 C7.89299772 2.71333825 4.05489059 2.33236808 0 2 C0 1.34 0 0.68 0 0 Z " fill="#60452B" transform="translate(558,288)"/>
<path d="M0 0 C0.66 0.33 1.32 0.66 2 1 C1.12472656 1.54527344 0.24945312 2.09054688 -0.65234375 2.65234375 C-4.04392182 4.91306397 -6.74303819 7.61469853 -9.5625 10.5625 C-12.84976318 13.99897228 -15.79912122 16.74383183 -20 19 C-18.41023993 15.10370942 -15.75727331 12.41166376 -12.8125 9.5 C-12.32144775 9.01241211 -11.83039551 8.52482422 -11.32446289 8.02246094 C-7.7744713 4.57785699 -4.54750412 1.93510813 0 0 Z " fill="#E27C67" transform="translate(624,200)"/>
<path d="M0 0 C0.66 0 1.32 0 2 0 C0.125 4.875 0.125 4.875 -1 6 C-2.34267413 6.08631874 -3.68974322 6.10706473 -5.03515625 6.09765625 C-5.84404297 6.09443359 -6.65292969 6.09121094 -7.48632812 6.08789062 C-8.33646484 6.07951172 -9.18660156 6.07113281 -10.0625 6.0625 C-10.91650391 6.05798828 -11.77050781 6.05347656 -12.65039062 6.04882812 C-14.76695663 6.03700373 -16.88348685 6.01906769 -19 6 C-19 5.34 -19 4.68 -19 4 C-17.87980469 3.96261719 -16.75960937 3.92523438 -15.60546875 3.88671875 C-14.1327791 3.82105743 -12.66012434 3.75461014 -11.1875 3.6875 C-10.44951172 3.66494141 -9.71152344 3.64238281 -8.95117188 3.61914062 C-4.70888058 3.47648897 -4.70888058 3.47648897 -1.11328125 1.45703125 C-0.56220703 0.73580078 -0.56220703 0.73580078 0 0 Z " fill="#5A3C23" transform="translate(758,310)"/>
<path d="M0 0 C-0.90621094 0.50789063 -1.81242188 1.01578125 -2.74609375 1.5390625 C-9.67789642 5.44784488 -16.46897217 9.43864723 -23 14 C-22.64582169 11.19099964 -22.21351117 10.18543998 -20.0390625 8.296875 C-19.24242187 7.78640625 -18.44578125 7.2759375 -17.625 6.75 C-16.83351563 6.22921875 -16.04203125 5.7084375 -15.2265625 5.171875 C-13 4 -13 4 -10 4 C-10 3.34 -10 2.68 -10 2 C-3.375 -1.125 -3.375 -1.125 0 0 Z " fill="#C0AB8E" transform="translate(681,303)"/>
<path d="M0 0 C2.64 0.66 5.28 1.32 8 2 C8 2.66 8 3.32 8 4 C8.86625 4.0825 9.7325 4.165 10.625 4.25 C14.51107778 5.11357284 16.88500021 6.55250016 20 9 C20 9.66 20 10.32 20 11 C12.83815946 8.92683563 4.82250383 5.91852742 0 0 Z " fill="#D8C8AD" transform="translate(589,292)"/>
<path d="M0 0 C7.21660787 0.39787382 14.2942855 1.11626681 21 4 C21.33 4.66 21.66 5.32 22 6 C15.29221378 5.22602467 8.65425699 4.14231412 2 3 C2 2.34 2 1.68 2 1 C1.34 0.67 0.68 0.34 0 0 Z " fill="#62472B" transform="translate(588,319)"/>
<path d="M0 0 C-1 3 -1 3 -3.22265625 4.31640625 C-8.7765928 6.75341555 -14.0566315 8.76647069 -20 10 C-19.67 9.01 -19.34 8.02 -19 7 C-17.02015519 6.27566653 -15.01416562 5.62256028 -13 5 C-10.91545956 4.01672621 -8.87448869 2.9699004 -6.83203125 1.90234375 C-4.53997235 0.77341922 -2.5753447 0 0 0 Z " fill="#CBB79A" transform="translate(694,294)"/>
<path d="M0 0 C0.66 0.33 1.32 0.66 2 1 C0.02 2.32 -1.96 3.64 -4 5 C-3.67 5.66 -3.34 6.32 -3 7 C-4.95330868 8.03041513 -6.91281528 9.0490893 -8.875 10.0625 C-9.96554687 10.63097656 -11.05609375 11.19945312 -12.1796875 11.78515625 C-13.11039063 12.18605469 -14.04109375 12.58695312 -15 13 C-15.66 12.67 -16.32 12.34 -17 12 C-15.10642909 10.55943648 -13.21027278 9.1225099 -11.3125 7.6875 C-10.78205078 7.28337891 -10.25160156 6.87925781 -9.70507812 6.46289062 C-6.57826326 4.10339229 -3.490287 1.7909879 0 0 Z " fill="#E2D5C3" transform="translate(685,314)"/>
<path d="M0 0 C0.33 0.66 0.66 1.32 1 2 C0 4 -1 6 -2 8 C-2.63497851 10.440617 -3.19741017 12.90121323 -3.6875 15.375 C-4.06455078 17.24285156 -4.06455078 17.24285156 -4.44921875 19.1484375 C-4.72185547 20.55996094 -4.72185547 20.55996094 -5 22 C-5.33 22 -5.66 22 -6 22 C-7.5460374 14.89158891 -6.61889224 10.28279903 -3 4 C-1.25 1.4375 -1.25 1.4375 0 0 Z " fill="#A85440" transform="translate(603,213)"/>
<path d="M0 0 C1.16144531 0.04511719 2.32289063 0.09023437 3.51953125 0.13671875 C4.84017578 0.22373047 4.84017578 0.22373047 6.1875 0.3125 C6.1875 0.6425 6.1875 0.9725 6.1875 1.3125 C2.2275 1.3125 -1.7325 1.3125 -5.8125 1.3125 C-6.4725 2.6325 -7.1325 3.9525 -7.8125 5.3125 C-8.1425 5.9725 -8.4725 6.6325 -8.8125 7.3125 C-9.4725 7.3125 -10.1325 7.3125 -10.8125 7.3125 C-10.8125 11.9325 -10.8125 16.5525 -10.8125 21.3125 C-11.1425 21.3125 -11.4725 21.3125 -11.8125 21.3125 C-11.94809675 18.74821485 -12.04683188 16.19114784 -12.125 13.625 C-12.16689453 12.90376953 -12.20878906 12.18253906 -12.25195312 11.43945312 C-12.3440393 7.40607858 -12.09941995 5.72360918 -9.71875 2.3125 C-6.16541434 -0.13280626 -4.26681081 -0.2154955 0 0 Z " fill="#6B4D35" transform="translate(555.8125,136.6875)"/>
<path d="M0 0 C5.33730279 0.41861198 8.05884981 1.387279 12 5 C12.99 5.66 13.98 6.32 15 7 C15 7.66 15 8.32 15 9 C15.99 9.33 16.98 9.66 18 10 C17.67 10.66 17.34 11.32 17 12 C14.72609813 10.56717148 12.45589859 9.12899467 10.1875 7.6875 C9.54490234 7.28337891 8.90230469 6.87925781 8.24023438 6.46289062 C7.61826172 6.06650391 6.99628906 5.67011719 6.35546875 5.26171875 C5.78465576 4.90037842 5.21384277 4.53903809 4.62573242 4.16674805 C2.89283369 2.92308938 1.46673031 1.54443788 0 0 Z " fill="#CCBB9F" transform="translate(609,303)"/>
<path d="M0 0 C5.64050733 -0.13927179 10.78325148 0.28899085 16.3125 1.375 C17.01439453 1.50132812 17.71628906 1.62765625 18.43945312 1.7578125 C21.86390863 2.41071155 24.06110512 3.04073675 27 5 C19.74 4.34 12.48 3.68 5 3 C5 2.34 5 1.68 5 1 C3.35 1 1.7 1 0 1 C0 0.67 0 0.34 0 0 Z " fill="#E3D5BB" transform="translate(570,313)"/>
<path d="M0 0 C7.44539885 -0.46533743 13.72002072 0.13001813 19.5 5.1875 C19.995 5.785625 20.49 6.38375 21 7 C20.40574219 6.81824219 19.81148437 6.63648438 19.19921875 6.44921875 C12.82913223 4.51738847 6.42941642 2.72347474 0 1 C0 0.67 0 0.34 0 0 Z " fill="#C6B399" transform="translate(572,289)"/>
<path d="M0 0 C1.27617188 0.02320313 2.55234375 0.04640625 3.8671875 0.0703125 C5.78917969 0.09738281 5.78917969 0.09738281 7.75 0.125 C9.23113281 0.15980469 9.23113281 0.15980469 10.7421875 0.1953125 C9.55859375 1.69140625 9.55859375 1.69140625 7.7421875 3.1953125 C5.33203125 3.41796875 5.33203125 3.41796875 2.6796875 3.2578125 C0.08404072 3.0662446 0.08404072 3.0662446 -2.2578125 3.1953125 C-2.9178125 3.8553125 -3.5778125 4.5153125 -4.2578125 5.1953125 C-6.91318622 5.76051253 -9.54925963 5.93319448 -12.2578125 6.1953125 C-10.02143719 3.95893719 -8.16161323 3.35683279 -5.2578125 2.1953125 C-3.2578125 0.1953125 -3.2578125 0.1953125 0 0 Z " fill="#D9806B" transform="translate(644.2578125,191.8046875)"/>
<path d="M0 0 C0.99 0.33 1.98 0.66 3 1 C2.40832031 1.37511719 1.81664062 1.75023437 1.20703125 2.13671875 C-3.36423516 5.09722897 -7.32405781 7.97943823 -11 12 C-12 13 -12 13 -15.0625 13.0625 C-16.031875 13.041875 -17.00125 13.02125 -18 13 C-18 11.68 -18 10.36 -18 9 C-17.67 9.99 -17.34 10.98 -17 12 C-13.38555678 9.93460387 -10.23857883 7.60666101 -7 5 C-5.00591923 3.65783025 -3.00698975 2.3227887 -1 1 C-0.67 0.67 -0.34 0.34 0 0 Z " fill="#6E5039" transform="translate(671,312)"/>
<path d="M0 0 C0.66 0.33 1.32 0.66 2 1 C0.61122646 4.35620271 -0.91677965 6.07298728 -4 8 C-4.66 8 -5.32 8 -6 8 C-6 8.66 -6 9.32 -6 10 C-7.98 10.33 -9.96 10.66 -12 11 C-12.33 10.34 -12.66 9.68 -13 9 C-11.63875 8.6596875 -11.63875 8.6596875 -10.25 8.3125 C-6.52404284 6.80778653 -5.38994916 5.13165752 -3 2 C-2.01 2 -1.02 2 0 2 C0 1.34 0 0.68 0 0 Z " fill="#60442D" transform="translate(656,161)"/>
<path d="M0 0 C-0.33 0.66 -0.66 1.32 -1 2 C-1.66 2 -2.32 2 -3 2 C-3 2.66 -3 3.32 -3 4 C-9.435 4.495 -9.435 4.495 -16 5 C-11.5281513 0.5281513 -6.28032503 -0.39252031 0 0 Z " fill="#583B20" transform="translate(699,319)"/>
<path d="M0 0 C1.87853919 2.81780879 2.57489844 4.66826651 3.4375 7.875 C4.52010662 11.66412316 5.8258307 14.68698012 8 18 C8 18.66 8 19.32 8 20 C7.34 20 6.68 20 6 20 C2.14832768 13.3199779 0.18104533 7.73557339 0 0 Z " fill="#D8BA9F" transform="translate(593,245)"/>
<path d="M0 0 C1.66627298 0.03622333 3.33405374 0.04899842 5 0 C0.13371581 2.62030687 -4.4185702 4.3283194 -10 4 C-10.33 3.01 -10.66 2.02 -11 1 C-6.86647289 -1.06676355 -4.46803788 -0.93084123 0 0 Z " fill="#65482F" transform="translate(687,323)"/>
<path d="M0 0 C4.95 0 9.9 0 15 0 C15 0.66 15 1.32 15 2 C9.91913204 2.84681133 5.15171623 3.09038099 0 3 C0 2.01 0 1.02 0 0 Z " fill="#5A3D24" transform="translate(714,315)"/>
<path d="M0 0 C-3.28557377 2.99987171 -6.79791054 4.02529928 -10.9765625 5.25390625 C-13.18813683 5.90892716 -13.18813683 5.90892716 -15 8 C-15.99 7.67 -16.98 7.34 -18 7 C-12.15627506 2.01564637 -7.81872072 -0.46912324 0 0 Z " fill="#644730" transform="translate(698,143)"/>
<path d="M0 0 C-1.72271227 1.15551453 -3.45346917 2.29904119 -5.1875 3.4375 C-6.15042969 4.07558594 -7.11335937 4.71367187 -8.10546875 5.37109375 C-10.84977757 6.91546187 -12.90418343 7.59816641 -16 8 C-14.95435763 5.1105622 -14.17182703 4.10460206 -11.50390625 2.48046875 C-10.53324219 2.05378906 -9.56257812 1.62710937 -8.5625 1.1875 C-7.59441406 0.74792969 -6.62632812 0.30835938 -5.62890625 -0.14453125 C-3 -1 -3 -1 0 0 Z " fill="#71533B" transform="translate(690,304)"/>
<path d="M0 0 C0.33 0 0.66 0 1 0 C1 10.89 1 21.78 1 33 C0.01 32.67 -0.98 32.34 -2 32 C-1.67 31.34 -1.34 30.68 -1 30 C-0.84504237 27.75025839 -0.74989072 25.49628464 -0.68359375 23.2421875 C-0.66281265 22.57913605 -0.64203156 21.91608459 -0.62062073 21.23294067 C-0.55520769 19.11373306 -0.49627895 16.994401 -0.4375 14.875 C-0.39430691 13.43878919 -0.35069236 12.00259098 -0.30664062 10.56640625 C-0.19953501 7.04440406 -0.09824425 3.52226175 0 0 Z " fill="#CEB99D" transform="translate(635,289)"/>
<path d="M0 0 C0.66 0.33 1.32 0.66 2 1 C-0.21977085 4.46284252 -1.47074964 5.82679079 -5.4375 7.125 C-9 7 -9 7 -11.9375 4.5625 C-12.618125 3.716875 -13.29875 2.87125 -14 2 C-10 2 -10 2 -8.25 3.5 C-7.8375 3.995 -7.425 4.49 -7 5 C-4.11562221 3.70700306 -2.12780579 2.34058637 0 0 Z " fill="#583D25" transform="translate(651,163)"/>
<path d="M0 0 C0.33 0 0.66 0 1 0 C1.66 8.58 2.32 17.16 3 26 C0 23 0 23 -0.34057617 20.5480957 C-0.32486572 19.60023193 -0.30915527 18.65236816 -0.29296875 17.67578125 C-0.2784668 16.13374023 -0.2784668 16.13374023 -0.26367188 14.56054688 C-0.23853516 13.48869141 -0.21339844 12.41683594 -0.1875 11.3125 C-0.16719727 9.68731445 -0.16719727 9.68731445 -0.14648438 8.02929688 C-0.11110643 5.35236595 -0.06174189 2.67643162 0 0 Z " fill="#C06853" transform="translate(597,235)"/>
<path d="M0 0 C6.81987029 0.43300764 11.91643021 1.90787824 18 5 C14.01035968 6.32988011 11.88573063 5.35283549 7.875 4.1875 C6.61429688 3.83042969 5.35359375 3.47335938 4.0546875 3.10546875 C1 2 1 2 0 0 Z " fill="#B1634D" transform="translate(651,193)"/>
<path d="M0 0 C-1 2 -1 2 -3.50390625 2.8515625 C-4.51324219 3.10679687 -5.52257812 3.36203125 -6.5625 3.625 C-7.57441406 3.88539063 -8.58632813 4.14578125 -9.62890625 4.4140625 C-10.41136719 4.60742188 -11.19382812 4.80078125 -12 5 C-12 3.68 -12 2.36 -12 1 C-7.9472484 0.01751476 -4.16138263 -0.08159574 0 0 Z " fill="#F2ECDE" transform="translate(714,151)"/>
<path d="M0 0 C1.6045556 0.14148989 3.20863767 0.28835686 4.8125 0.4375 C5.70582031 0.51871094 6.59914063 0.59992188 7.51953125 0.68359375 C10 1 10 1 13 2 C13 2.66 13 3.32 13 4 C13.66 4 14.32 4 15 4 C15 4.66 15 5.32 15 6 C4.44191344 2.92482916 4.44191344 2.92482916 0 1 C0 0.67 0 0.34 0 0 Z " fill="#D6BB9E" transform="translate(652,191)"/>
<path d="M0 0 C0.99 0.33 1.98 0.66 3 1 C1.37744772 2.48185125 -0.24811888 3.96040256 -1.875 5.4375 C-2.77992188 6.26121094 -3.68484375 7.08492187 -4.6171875 7.93359375 C-7 10 -7 10 -9 11 C-8.44848637 7.23132354 -6.9602745 5.65408496 -4.125 3.1875 C-3.42632813 2.56230469 -2.72765625 1.93710938 -2.0078125 1.29296875 C-1.34523438 0.86628906 -0.68265625 0.43960938 0 0 Z " fill="#98503B" transform="translate(614,201)"/>
<path d="M0 0 C6.06892629 -0.25287193 11.16200408 0.30167391 17 2 C15 4 15 4 13.0546875 4.1953125 C11.03645833 4.13020833 9.01822917 4.06510417 7 4 C7 3.34 7 2.68 7 2 C4.69 1.67 2.38 1.34 0 1 C0 0.67 0 0.34 0 0 Z " fill="#E5DBCA" transform="translate(556,148)"/>
<path d="M0 0 C3.57814867 0.59635811 5.54422861 1.999934 8.25 4.375 C8.95640625 4.98085937 9.6628125 5.58671875 10.390625 6.2109375 C12 8 12 8 12 11 C11.2575 10.21625 10.515 9.4325 9.75 8.625 C7.45566682 6.43495469 5.87841142 5.17268614 3 4 C3 3.34 3 2.68 3 2 C2.01 1.67 1.02 1.34 0 1 C0 0.67 0 0.34 0 0 Z " fill="#C0755F" transform="translate(668,199)"/>
<path d="M0 0 C0 0.66 0 1.32 0 2 C-1.65788785 3.34423339 -3.32576317 4.67618483 -5 6 C-6.76323505 8.12603185 -6.76323505 8.12603185 -8 10 C-8 7.36 -8 4.72 -8 2 C-2.25 0 -2.25 0 0 0 Z " fill="#4E341D" transform="translate(515,157)"/>
<path d="M0 0 C0.66 0.33 1.32 0.66 2 1 C-0.25 3.5 -0.25 3.5 -3 6 C-4.32 6 -5.64 6 -7 6 C-7 6.66 -7 7.32 -7 8 C-7.99 7.67 -8.98 7.34 -10 7 C-6.7 4.69 -3.4 2.38 0 0 Z " fill="#4F351F" transform="translate(663,155)"/>
<path d="M0 0 C0.99 0.66 1.98 1.32 3 2 C1.2097939 2.67057887 -0.58221489 3.3363469 -2.375 4 C-3.37273438 4.37125 -4.37046875 4.7425 -5.3984375 5.125 C-8 6 -8 6 -10 6 C-10 5.34 -10 4.68 -10 4 C-8.4032805 3.27503542 -6.79727392 2.57049603 -5.1875 1.875 C-4.29417969 1.48054687 -3.40085937 1.08609375 -2.48046875 0.6796875 C-1.25263672 0.34324219 -1.25263672 0.34324219 0 0 Z " fill="#2D1101" transform="translate(686,142)"/>
<path d="M0 0 C0.81210937 0.29003906 1.62421875 0.58007812 2.4609375 0.87890625 C3.27820313 1.16636719 4.09546875 1.45382812 4.9375 1.75 C5.56398438 1.97816406 6.19046875 2.20632813 6.8359375 2.44140625 C5.8459375 3.92640625 5.8459375 3.92640625 4.8359375 5.44140625 C4.8359375 4.78140625 4.8359375 4.12140625 4.8359375 3.44140625 C4.0934375 3.50328125 3.3509375 3.56515625 2.5859375 3.62890625 C-0.61789256 3.41046329 -1.80437506 2.5389062 -4.1640625 0.44140625 C-2.1640625 -0.55859375 -2.1640625 -0.55859375 0 0 Z " fill="#6D4F35" transform="translate(612.1640625,324.55859375)"/>
<path d="M0 0 C3.99452176 1.36955032 6.92159754 3.0926199 10 6 C10.640625 8.1328125 10.640625 8.1328125 11 10 C7.19364503 6.79239749 3.45436433 3.59253891 0 0 Z " fill="#E3C7AD" transform="translate(671,199)"/>
<path d="M0 0 C0.66 0.99 1.32 1.98 2 3 C1.01 3 0.02 3 -1 3 C-1.33 2.67 -1.66 2.34 -2 2 C-4.01594582 1.76572222 -6.038474 1.58663876 -8.0625 1.4375 C-9.16722656 1.35371094 -10.27195312 1.26992187 -11.41015625 1.18359375 C-12.26480469 1.12300781 -13.11945312 1.06242188 -14 1 C-14 0.67 -14 0.34 -14 0 C-12.41773035 -0.19627391 -10.83410729 -0.38165538 -9.25 -0.5625 C-8.36828125 -0.66691406 -7.4865625 -0.77132812 -6.578125 -0.87890625 C-4.0534362 -0.99749012 -2.34253077 -0.93191985 0 0 Z " fill="#3A2110" transform="translate(743,135)"/>
<path d="M0 0 C6.26079448 -0.43177893 9.09075703 0.07260562 14 4 C10.22134307 5.25955231 8.96588214 4.48087189 5.3125 3.0625 C4.31863281 2.68222656 3.32476563 2.30195313 2.30078125 1.91015625 C1.54152344 1.60980469 0.78226563 1.30945313 0 1 C0 0.67 0 0.34 0 0 Z " fill="#C5AF93" transform="translate(606,322)"/>
<path d="M0 0 C4.33168317 -0.26252625 7.8803623 0.70756464 12 2 C12 2.33 12 2.66 12 3 C6.06 3.495 6.06 3.495 0 4 C0.66 3.34 1.32 2.68 2 2 C1.34 1.34 0.68 0.68 0 0 Z " fill="#674A31" transform="translate(696,318)"/>
<path d="M0 0 C0.66 0.66 1.32 1.32 2 2 C0.71372289 3.17260611 -0.57919783 4.3379283 -1.875 5.5 C-2.59429688 6.1496875 -3.31359375 6.799375 -4.0546875 7.46875 C-6 9 -6 9 -8 9 C-6.4169423 4.7257442 -3.49431596 2.73468206 0 0 Z " fill="#3E1D07" transform="translate(652,160)"/>
<path d="M0 0 C0 3 0 3 -1.53125 4.60546875 C-2.1809375 5.12753906 -2.830625 5.64960938 -3.5 6.1875 C-4.1496875 6.71730469 -4.799375 7.24710937 -5.46875 7.79296875 C-5.9740625 8.19128906 -6.479375 8.58960938 -7 9 C-7 8.01 -7 7.02 -7 6 C-6.34 6 -5.68 6 -5 6 C-4.731875 5.38125 -4.46375 4.7625 -4.1875 4.125 C-3 2 -3 2 0 0 Z " fill="#CEBA9F" transform="translate(657,315)"/>
<path d="M0 0 C4.92127034 -0.16682272 8.50343896 -0.24828052 13 2 C13 2.33 13 2.66 13 3 C10.36 3 7.72 3 5 3 C5 2.34 5 1.68 5 1 C3.35 1 1.7 1 0 1 C0 0.67 0 0.34 0 0 Z " fill="#DAC8AE" transform="translate(570,313)"/>
<path d="M0 0 C0 0.66 0 1.32 0 2 C-3.3 1.34 -6.6 0.68 -10 0 C-10 -0.33 -10 -0.66 -10 -1 C-5.94568308 -2.15837626 -3.78187881 -1.83691257 0 0 Z " fill="#DDCDB2" transform="translate(613,321)"/>
<path d="M0 0 C1.258125 0.12375 2.51625 0.2475 3.8125 0.375 C4.87404297 0.47941406 4.87404297 0.47941406 5.95703125 0.5859375 C8 1 8 1 11 3 C11 3.66 11 4.32 11 5 C7.27566618 3.7874262 3.62197194 2.49140021 0 1 C0 0.67 0 0.34 0 0 Z " fill="#C9B69A" transform="translate(598,298)"/>
<path d="M0 0 C1.45742463 -0.08096803 2.91612807 -0.13917774 4.375 -0.1875 C5.18710937 -0.22230469 5.99921875 -0.25710938 6.8359375 -0.29296875 C7.55007813 -0.19628906 8.26421875 -0.09960938 9 0 C9.66 0.99 10.32 1.98 11 3 C6.88425629 2.5251065 3.63616656 1.9789756 0 0 Z " fill="#B9A68A" transform="translate(572,289)"/>
<path d="M0 0 C-0.99 0.33 -1.98 0.66 -3 1 C-3 1.66 -3 2.32 -3 3 C-4.98 3.33 -6.96 3.66 -9 4 C-9.33 3.34 -9.66 2.68 -10 2 C-8.71211992 1.46987262 -7.41953322 0.9511671 -6.125 0.4375 C-5.40570312 0.14746094 -4.68640625 -0.14257812 -3.9453125 -0.44140625 C-2 -1 -2 -1 0 0 Z " fill="#6F523A" transform="translate(653,168)"/>
<path d="M0 0 C-0.5625 1.9375 -0.5625 1.9375 -2 4 C-5.625 4.75 -5.625 4.75 -9 5 C-2.87096774 0 -2.87096774 0 0 0 Z " fill="#50341F" transform="translate(674,150)"/>
<path d="M0 0 C3.34373475 0.55728913 6.03312999 1.35173889 9 3 C8.67 3.66 8.34 4.32 8 5 C5.36 4.01 2.72 3.02 0 2 C0 1.34 0 0.68 0 0 Z " fill="#634A2E" transform="translate(591,296)"/>
<path d="M0 0 C2.31 0.33 4.62 0.66 7 1 C7 1.66 7 2.32 7 3 C7.99 3.33 8.98 3.66 10 4 C9.01 4.495 9.01 4.495 8 5 C6.0546875 4.22265625 6.0546875 4.22265625 3.875 3.0625 C3.15054688 2.68222656 2.42609375 2.30195313 1.6796875 1.91015625 C1.12539063 1.60980469 0.57109375 1.30945313 0 1 C0 0.67 0 0.34 0 0 Z " fill="#E1937E" transform="translate(618,281)"/>
<path d="M0 0 C0.66 0.33 1.32 0.66 2 1 C0.07423885 3.43929746 -1.80090595 5.80090595 -4 8 C-4.66 7.67 -5.32 7.34 -6 7 C-4.77065985 3.31197956 -3.06140622 2.27643027 0 0 Z " fill="#EFE7DB" transform="translate(657,174)"/>
<path d="M0 0 C0 0.33 0 0.66 0 1 C-6.0546875 1.9765625 -6.0546875 1.9765625 -8 2 C-8.66 1.34 -9.32 0.68 -10 0 C-6.30581799 -1.231394 -3.7943739 -0.64432764 0 0 Z " fill="#351E0A" transform="translate(710,138)"/>
<path d="M0 0 C-0.33 0.99 -0.66 1.98 -1 3 C-2.84765625 3.73046875 -2.84765625 3.73046875 -5.0625 4.1875 C-5.79597656 4.34605469 -6.52945313 4.50460937 -7.28515625 4.66796875 C-8.13400391 4.83232422 -8.13400391 4.83232422 -9 5 C-8.67 4.01 -8.34 3.02 -8 2 C-5.27366306 0.89786379 -2.95855967 0 0 0 Z " fill="#D5C3A7" transform="translate(683,299)"/>
<path d="M0 0 C2.31 0.33 4.62 0.66 7 1 C6 3 6 3 2.9375 4.125 C1.968125 4.41375 0.99875 4.7025 0 5 C0 3.33333333 0 1.66666667 0 0 Z " fill="#62442C" transform="translate(688,298)"/>
<path d="M0 0 C0.78375 0.185625 1.5675 0.37125 2.375 0.5625 C4.97089775 1.25962266 4.97089775 1.25962266 7 0 C7.66 0.66 8.32 1.32 9 2 C8.67 2.66 8.34 3.32 8 4 C5.36 3.34 2.72 2.68 0 2 C0 1.34 0 0.68 0 0 Z " fill="#72563A" transform="translate(594,299)"/>
<path d="M0 0 C0.33 0.66 0.66 1.32 1 2 C-1.45454545 7.72727273 -1.45454545 7.72727273 -4 9 C-3.46930939 5.17902761 -2.50298434 2.93828597 0 0 Z " fill="#984E38" transform="translate(603,213)"/>
</svg>
